<?xml version="1.0" encoding="UTF-8"?>
<svg width="427px" height="85px" viewBox="0 0 427 85" version="1.1" xmlns="http://www.w3.org/2000/svg" xmlns:xlink="http://www.w3.org/1999/xlink">
    <title>Group</title>
    <defs>
        <rect id="path-1" x="0.928" y="0.249" width="425.195" height="84.284"></rect>
        <rect id="path-3" x="0.928" y="0.249" width="425.195" height="84.284"></rect>
    </defs>
    <g id="Page-1" stroke="none" stroke-width="1" fill="none" fill-rule="evenodd">
        <g id="Group">
            <g id="Clipped">
                <mask id="mask-2" fill="white">
                    <use xlink:href="#path-1"></use>
                </mask>
                <g id="SVGID_1_"></g>
                <path d="M425.474,66.868 C425.416,66.615 425.318,66.42 425.187,66.281 C425.052,66.143 424.819,65.98 424.482,65.792 C424.147,65.605 423.723,65.43 423.212,65.265 C422.704,65.104 422.108,64.965 421.427,64.851 C420.747,64.74 419.989,64.682 419.158,64.682 C417.647,64.682 416.275,64.911 415.045,65.378 C413.815,65.844 412.764,66.513 411.894,67.387 C411.024,68.262 410.35,69.325 409.878,70.573 C409.402,71.825 409.166,73.236 409.166,74.807 C409.166,76.328 409.388,77.69 409.833,78.891 C410.279,80.091 410.92,81.112 411.761,81.946 C412.601,82.782 413.625,83.419 414.835,83.86 C416.048,84.298 417.42,84.518 418.95,84.518 C419.473,84.518 419.997,84.495 420.515,84.446 C421.034,84.394 421.548,84.321 422.054,84.222 C422.564,84.123 423.057,84.003 423.531,83.867 C424.008,83.727 424.404,83.595 424.725,83.466 C425.046,83.338 425.257,83.162 425.364,82.941 C425.468,82.718 425.518,82.457 425.518,82.161 L425.518,74.527 C425.518,74.328 425.493,74.154 425.446,74 C425.394,73.848 425.326,73.718 425.231,73.608 C425.137,73.499 425.026,73.417 424.903,73.363 C424.781,73.307 424.639,73.282 424.481,73.282 L418.002,73.282 C417.912,73.282 417.835,73.307 417.764,73.363 C417.696,73.417 417.638,73.501 417.586,73.616 C417.539,73.73 417.5,73.88 417.475,74.069 C417.45,74.256 417.439,74.487 417.439,74.763 C417.439,75.296 417.488,75.676 417.586,75.899 C417.685,76.12 417.822,76.232 418.002,76.232 L421.634,76.232 L421.634,80.68 C421.267,80.876 420.87,81.027 420.448,81.125 C420.021,81.224 419.593,81.271 419.157,81.271 C418.267,81.271 417.453,81.13 416.719,80.842 C415.982,80.557 415.352,80.131 414.828,79.567 C414.303,79.005 413.897,78.304 413.606,77.47 C413.312,76.634 413.168,75.667 413.168,74.57 C413.168,73.573 413.31,72.66 413.595,71.835 C413.884,71.01 414.294,70.303 414.827,69.717 C415.359,69.13 416.002,68.675 416.752,68.352 C417.505,68.033 418.345,67.872 419.273,67.872 C420.143,67.872 420.907,67.96 421.567,68.138 C422.223,68.317 422.789,68.509 423.262,68.717 C423.736,68.923 424.116,69.115 424.405,69.294 C424.692,69.472 424.898,69.562 425.027,69.562 C425.115,69.562 425.192,69.537 425.255,69.487 C425.323,69.438 425.375,69.352 425.422,69.23 C425.465,69.103 425.499,68.938 425.525,68.73 C425.548,68.525 425.562088,68.276 425.562088,67.991 C425.564,67.494 425.532,67.121 425.474,66.868 M404.292,65.586 C404.292,65.487 404.266,65.398 404.215,65.318 C404.167,65.239 404.081,65.168 403.957,65.11 C403.833,65.05 403.657,65.009 403.43,64.984 C403.202,64.96 402.924,64.947 402.587,64.947 C402.23,64.947 401.938,64.96 401.711,64.984 C401.483,65.009 401.301,65.05 401.162,65.11 C401.024,65.168 400.926,65.239 400.866,65.318 C400.805,65.397 400.778,65.487 400.778,65.586 L400.778,74.584 C400.778,75.268 400.784,75.983 400.801,76.733 C400.814,77.486 400.835,78.207 400.865,78.899 L400.849,78.899 C400.671,78.504 400.489,78.107 400.3,77.711 C400.113,77.316 399.921,76.916 399.724,76.504 C399.527,76.095 399.321,75.684 399.109,75.274 C398.896,74.863 398.68,74.447 398.463,74.022 L394.727,67.008 C394.539,66.622 394.356,66.3 394.178,66.039 C394,65.775 393.809,65.571 393.606,65.421 C393.404,65.274 393.174,65.166 392.918,65.104 C392.663,65.041 392.346,65.008 391.971,65.008 L389.878,65.008 C389.482,65.008 389.149,65.123 388.879,65.355 C388.607,65.589 388.47,65.936 388.47,66.401 L388.47,83.643 C388.47,83.743 388.495,83.831 388.547,83.91 C388.594,83.989 388.685,84.057 388.811,84.111 C388.942,84.165 389.118,84.206 389.345,84.238 C389.572,84.265 389.859,84.28 390.206,84.28 C390.561,84.28 390.853,84.265 391.079,84.238 C391.308,84.206 391.488,84.165 391.621,84.111 C391.754,84.057 391.849,83.989 391.901,83.91 C391.955,83.831 391.983,83.743 391.983,83.643 L391.983,73.607 C391.983,72.854 391.974,72.126 391.955,71.42 C391.934,70.712 391.904,70.002 391.865,69.291 L391.895,69.291 C392.123,69.876 392.379,70.474 392.666,71.094 C392.953,71.711 393.232,72.285 393.511,72.82 L398.285,81.792 C398.531,82.285 398.755,82.688 398.951,82.999 C399.148,83.312 399.354,83.556 399.566,83.74 C399.779,83.923 400.01,84.049 400.263,84.118 C400.514,84.186 400.812,84.222 401.159,84.222 L402.822,84.222 C403.007,84.222 403.191,84.195 403.375,84.141 C403.56,84.085 403.716,83.999 403.852,83.881 C403.985,83.763 404.092,83.613 404.169,83.436 C404.248,83.257 404.289,83.056 404.289,82.827 L404.289,65.586 L404.292,65.586 Z M382.605,65.539 C382.605,65.44 382.573,65.352 382.515,65.273 C382.454,65.196 382.352,65.131 382.202,65.08 C382.056,65.031 381.859,64.99 381.615,64.963 C381.375,64.933 381.066,64.92 380.688,64.92 C380.315,64.92 380,64.933 379.748,64.963 C379.497,64.99 379.295,65.031 379.149,65.08 C379,65.132 378.896,65.196 378.836,65.273 C378.775,65.352 378.746,65.44 378.746,65.539 L378.746,77.092 C378.746,77.763 378.655,78.363 378.474,78.891 C378.289,79.42 378.03,79.867 377.696,80.226 C377.359,80.586 376.95,80.861 376.464,81.049 C375.982,81.236 375.433,81.33 374.819,81.33 C374.215,81.33 373.67,81.24 373.181,81.056 C372.692,80.873 372.272,80.599 371.92,80.233 C371.568,79.869 371.301,79.406 371.109,78.848 C370.924,78.29 370.831,77.63 370.831,76.868 L370.831,65.54 C370.831,65.441 370.797,65.353 370.732,65.274 C370.669,65.197 370.56,65.132 370.415,65.081 C370.265,65.032 370.067,64.991 369.823,64.964 C369.575,64.934 369.261,64.921 368.888,64.921 C368.502,64.921 368.185,64.934 367.939,64.964 C367.692,64.991 367.491,65.032 367.336,65.081 C367.184,65.133 367.078,65.197 367.019,65.274 C366.958,65.353 366.931,65.441 366.931,65.54 L366.931,77.211 C366.931,78.435 367.107,79.505 367.456,80.42 C367.808,81.333 368.313,82.097 368.977,82.709 C369.637,83.324 370.448,83.781 371.406,84.081 C372.365,84.382 373.449,84.534 374.654,84.534 C375.94,84.534 377.077,84.364 378.062,84.027 C379.053,83.693 379.88,83.204 380.553,82.561 C381.227,81.917 381.735,81.133 382.079,80.205 C382.427,79.277 382.602,78.223 382.602,77.046 L382.602,65.539 L382.605,65.539 Z M362.938,65.853 C362.913,65.647 362.878,65.48 362.827,65.355 C362.775,65.233 362.716,65.143 362.642,65.087 C362.57,65.035 362.488,65.008 362.398,65.008 L348.876,65.008 C348.777,65.008 348.691,65.035 348.625,65.087 C348.554,65.143 348.494,65.233 348.447,65.355 C348.395,65.48 348.359,65.647 348.335,65.853 C348.31,66.061 348.297,66.311 348.297,66.609 C348.297,66.894 348.31,67.141 348.335,67.342 C348.359,67.544 348.396,67.709 348.447,67.831 C348.494,67.955 348.553,68.047 348.625,68.105 C348.691,68.165 348.777,68.193 348.876,68.193 L353.68,68.193 L353.68,83.658 C353.68,83.759 353.712,83.845 353.777,83.924 C353.842,84.003 353.946,84.068 354.094,84.117 C354.243,84.168 354.446,84.205 354.697,84.237 C354.947,84.264 355.26,84.279 355.637,84.279 C356.01,84.279 356.325,84.264 356.578,84.237 C356.829,84.205 357.03,84.168 357.181,84.117 C357.327,84.067 357.434,84.003 357.498,83.924 C357.562,83.845 357.594,83.759 357.594,83.658 L357.594,68.193 L362.399,68.193 C362.489,68.193 362.571,68.165 362.643,68.105 C362.716,68.046 362.776,67.955 362.828,67.831 C362.88,67.709 362.914,67.544 362.939,67.342 C362.965,67.141 362.978,66.894 362.978,66.609 C362.978,66.311 362.965,66.061 362.938,65.853 M342.102,76.824 L336.664,76.824 L339.376,68.669 L339.391,68.669 L342.102,76.824 Z M342.269,65.732 C342.209,65.545 342.136,65.397 342.052,65.288 C341.967,65.179 341.827,65.1 341.639,65.044 C341.446,64.988 341.175,64.956 340.828,64.941 C340.482,64.925 340.017,64.92 339.434,64.92 C338.93,64.92 338.525,64.926 338.218,64.941 C337.911,64.956 337.671,64.988 337.498,65.044 C337.324,65.1 337.2,65.177 337.12,65.282 C337.041,65.385 336.973,65.519 336.915,65.689 L330.998,82.708 C330.88,83.056 330.805,83.332 330.772,83.54 C330.747,83.746 330.781,83.906 330.879,84.02 C330.978,84.135 331.155,84.205 331.41,84.237 C331.668,84.264 332.023,84.279 332.478,84.279 C332.905,84.279 333.248,84.271 333.506,84.252 C333.773,84.232 333.974,84.194 334.115,84.141 C334.261,84.085 334.364,84.012 334.428,83.918 C334.492,83.823 334.544,83.707 334.582,83.568 L335.8,79.816 L343.003,79.816 L344.294,83.672 C344.334,83.801 344.384,83.903 344.441,83.984 C344.502,84.063 344.606,84.125 344.752,84.171 C344.902,84.216 345.117,84.243 345.399,84.259 C345.678,84.274 346.073,84.28 346.579,84.28 C347.063,84.28 347.442,84.27 347.72,84.244 C347.996,84.221 348.189,84.156 348.298,84.054 C348.405,83.949 348.446,83.792 348.418,83.586 C348.388,83.376 348.312,83.096 348.193,82.739 L342.269,65.732 Z M322.684,71.797 C322.546,72.133 322.336,72.423 322.062,72.665 C321.784,72.907 321.44,73.094 321.025,73.227 C320.609,73.362 320.125,73.428 319.571,73.428 L317.586,73.428 L317.586,67.988 L319.336,67.988 C319.777,67.988 320.129,68.001 320.38,68.033 C320.633,68.061 320.856,68.099 321.055,68.151 C321.707,68.329 322.174,68.635 322.464,69.071 C322.749,69.506 322.895,70.04 322.895,70.67 C322.894,71.085 322.822,71.46 322.684,71.797 M327.841,83.278 C327.794,83.107 327.695,82.833 327.545,82.455 L325.929,78.676 C325.744,78.222 325.552,77.815 325.355,77.454 C325.158,77.093 324.946,76.77 324.725,76.489 C324.499,76.209 324.261,75.968 324.008,75.769 C323.76,75.572 323.489,75.404 323.202,75.267 C323.798,75.079 324.323,74.831 324.788,74.525 C325.256,74.218 325.642,73.856 325.961,73.443 C326.276,73.027 326.517,72.555 326.68,72.026 C326.842,71.496 326.924,70.913 326.924,70.27 C326.924,69.509 326.813,68.833 326.583,68.247 C326.357,67.659 326.027,67.149 325.597,66.718 C325.166,66.289 324.643,65.943 324.026,65.674 C323.409,65.406 322.713,65.22 321.942,65.111 C321.676,65.081 321.38,65.057 321.054,65.038 C320.726,65.019 320.313,65.009 319.809,65.009 L314.842,65.009 C314.516,65.009 314.241,65.105 314.019,65.298 C313.795,65.491 313.684,65.804 313.684,66.239 L313.684,83.659 C313.684,83.76 313.714,83.846 313.774,83.925 C313.835,84.004 313.937,84.069 314.086,84.118 C314.233,84.169 314.433,84.206 314.686,84.238 C314.937,84.265 315.252,84.28 315.627,84.28 C316.013,84.28 316.33,84.265 316.574,84.238 C316.823,84.206 317.02,84.169 317.171,84.118 C317.317,84.068 317.424,84.004 317.487,83.925 C317.551,83.846 317.586,83.76 317.586,83.659 L317.586,76.35 L318.8,76.35 C319.216,76.35 319.58,76.413 319.898,76.543 C320.213,76.67 320.494,76.86 320.736,77.113 C320.978,77.366 321.197,77.679 321.394,78.054 C321.591,78.429 321.797,78.86 322.003,79.342 L323.722,83.627 C323.763,83.745 323.812,83.848 323.87,83.932 C323.93,84.015 324.03,84.084 324.177,84.14 C324.318,84.194 324.513,84.232 324.762,84.251 C325.008,84.271 325.338,84.278 325.754,84.278 C326.247,84.278 326.638,84.27 326.925,84.251 C327.212,84.232 327.429,84.195 327.576,84.146 C327.726,84.097 327.82,84.037 327.859,83.962 C327.897,83.887 327.919,83.797 327.919,83.688 C327.918,83.59 327.893,83.452 327.841,83.278 M308.505,81.945 C308.481,81.755 308.444,81.597 308.396,81.48 C308.346,81.36 308.284,81.272 308.209,81.22 C308.134,81.164 308.055,81.136 307.964,81.136 L301.055,81.136 L301.055,75.726 L306.852,75.726 C306.942,75.726 307.024,75.7 307.099,75.651 C307.171,75.601 307.232,75.52 307.283,75.407 C307.331,75.293 307.369,75.143 307.395,74.954 C307.42,74.767 307.433,74.53 307.433,74.245 C307.433,73.966 307.42,73.732 307.395,73.54 C307.369,73.347 307.331,73.192 307.283,73.081 C307.232,72.967 307.172,72.884 307.099,72.828 C307.024,72.772 306.942,72.746 306.852,72.746 L301.055,72.746 L301.055,68.06 L307.905,68.06 C307.995,68.06 308.072,68.034 308.145,67.978 C308.211,67.924 308.269,67.836 308.321,67.719 C308.368,67.601 308.407,67.445 308.432,67.251 C308.457,67.061 308.468,66.824 308.468,66.548 C308.468,66.25 308.457,66.006 308.432,65.813 C308.407,65.621 308.368,65.463 308.321,65.339 C308.269,65.217 308.212,65.131 308.145,65.079 C308.072,65.03 307.995,65.007 307.905,65.007 L298.329,65.007 C298.001,65.007 297.726,65.103 297.506,65.296 C297.28,65.489 297.174,65.802 297.174,66.237 L297.174,82.96 C297.174,83.396 297.28,83.709 297.506,83.901 C297.727,84.094 298.001,84.19 298.329,84.19 L307.965,84.19 C308.056,84.19 308.135,84.163 308.21,84.109 C308.284,84.055 308.347,83.967 308.397,83.849 C308.446,83.729 308.482,83.575 308.506,83.382 C308.531,83.189 308.544,82.951 308.544,82.664 C308.543,82.378 308.53,82.139 308.505,81.945 M288.062,79.707 C287.91,80.039 287.698,80.316 287.425,80.537 C287.153,80.76 286.831,80.929 286.46,81.043 C286.092,81.154 285.633,81.212 285.091,81.212 L282.274,81.212 L282.274,75.756 L284.586,75.756 C285.297,75.756 285.878,75.82 286.322,75.949 C286.767,76.078 287.132,76.26 287.42,76.496 C287.707,76.733 287.923,77.029 288.071,77.379 C288.221,77.731 288.292,78.127 288.292,78.573 C288.291,78.998 288.216,79.377 288.062,79.707 M287.136,71.345 C287.029,71.656 286.862,71.928 286.639,72.161 C286.415,72.392 286.137,72.575 285.802,72.71 C285.468,72.843 285.018,72.909 284.451,72.909 L282.273,72.909 L282.273,67.928 L284.246,67.928 C284.846,67.928 285.33,67.981 285.69,68.09 C286.05,68.199 286.35,68.354 286.586,68.558 C286.824,68.761 287.002,69.014 287.122,69.324 C287.237,69.628 287.298014,69.975 287.298014,70.359 C287.299,70.705 287.245,71.033 287.136,71.345 M292.043,76.674 C291.846,76.151 291.575,75.695 291.234,75.304 C290.895,74.914 290.492,74.595 290.034,74.348 C289.575,74.102 289.073,73.928 288.531,73.829 C288.953,73.67 289.331,73.463 289.663,73.205 C289.995,72.948 290.274,72.652 290.501,72.315 C290.729,71.981 290.902,71.608 291.021,71.196 C291.141,70.787 291.199,70.349 291.199,69.884 C291.199,69.054 291.051,68.331 290.755,67.719 C290.459,67.106 290.03,66.6 289.471,66.2 C288.914,65.798 288.226,65.5 287.411,65.303 C286.596,65.106 285.599,65.007 284.425,65.007 L279.608,65.007 C279.278,65.007 279.004,65.103 278.785,65.296 C278.562,65.489 278.451,65.802 278.451,66.237 L278.451,82.96 C278.451,83.396 278.562,83.709 278.785,83.901 C279.004,84.094 279.278,84.19 279.608,84.19 L284.707,84.19 C285.478,84.19 286.177,84.143 286.806,84.051 C287.434,83.956 288.026,83.809 288.578,83.612 C289.13,83.415 289.637,83.162 290.096,82.857 C290.555,82.548 290.95,82.184 291.282,81.759 C291.614,81.334 291.872,80.846 292.06,80.29 C292.248,79.737 292.343,79.12 292.343,78.436 C292.341,77.786 292.242,77.199 292.043,76.674 M268.652,71.797 C268.512,72.133 268.304,72.423 268.026,72.665 C267.752,72.907 267.404,73.094 266.988,73.227 C266.575,73.362 266.092,73.428 265.535,73.428 L263.55,73.428 L263.55,67.988 L265.299,67.988 C265.745,67.988 266.093,68.001 266.346,68.033 C266.597,68.061 266.822,68.099 267.019,68.151 C267.673,68.329 268.142,68.635 268.43,69.071 C268.715,69.506 268.859,70.04 268.859,70.67 C268.858,71.085 268.789,71.46 268.652,71.797 M273.811,83.278 C273.763,83.107 273.665,82.833 273.515,82.455 L271.898,78.676 C271.71,78.222 271.519,77.815 271.32,77.454 C271.123,77.094 270.913,76.77 270.689,76.489 C270.466,76.209 270.231,75.968 269.977,75.769 C269.724,75.572 269.458,75.404 269.169,75.267 C269.763,75.079 270.29,74.831 270.758,74.525 C271.221,74.218 271.611,73.856 271.928,73.443 C272.243,73.027 272.486,72.555 272.647,72.026 C272.809,71.496 272.891,70.913 272.891,70.27 C272.891,69.509 272.777,68.833 272.55,68.247 C272.322,67.659 271.994,67.149 271.564,66.718 C271.135,66.289 270.61,65.943 269.993,65.674 C269.378,65.406 268.68,65.22 267.911,65.111 C267.645,65.081 267.346,65.057 267.019,65.038 C266.693,65.019 266.278,65.009 265.776,65.009 L260.809,65.009 C260.481,65.009 260.206,65.105 259.986,65.298 C259.764,65.491 259.651,65.804 259.651,66.239 L259.651,83.659 C259.651,83.76 259.683,83.846 259.741,83.925 C259.8,84.004 259.904,84.069 260.053,84.118 C260.2,84.169 260.4,84.206 260.653,84.238 C260.906,84.265 261.219,84.28 261.596,84.28 C261.982,84.28 262.297,84.265 262.544,84.238 C262.792,84.206 262.989,84.169 263.135,84.118 C263.285,84.068 263.391,84.004 263.457,83.925 C263.52,83.846 263.551,83.76 263.551,83.659 L263.551,76.35 L264.767,76.35 C265.181,76.35 265.549,76.413 265.865,76.543 C266.18,76.67 266.459,76.86 266.703,77.113 C266.945,77.366 267.164,77.679 267.363,78.054 C267.56,78.429 267.764,78.86 267.97,79.342 L269.691,83.627 C269.73,83.745 269.779,83.848 269.837,83.932 C269.897,84.015 269.997,84.084 270.144,84.14 C270.288,84.194 270.48,84.232 270.727,84.251 C270.975,84.271 271.308,84.278 271.721,84.278 C272.216,84.278 272.607,84.27 272.892,84.251 C273.179,84.231 273.396,84.195 273.545,84.146 C273.691,84.097 273.785,84.037 273.826,83.962 C273.867,83.887 273.884,83.797 273.884,83.688 C273.883,83.59 273.861,83.452 273.811,83.278 M253.783,65.539 C253.783,65.44 253.753,65.352 253.693,65.273 C253.632,65.196 253.53,65.131 253.384,65.08 C253.234,65.031 253.038,64.99 252.796,64.963 C252.552,64.933 252.245,64.92 251.87,64.92 C251.492,64.92 251.18,64.933 250.929,64.963 C250.676,64.99 250.477,65.031 250.326,65.08 C250.18,65.132 250.073,65.196 250.015,65.273 C249.955,65.352 249.927,65.44 249.927,65.539 L249.927,77.092 C249.927,77.763 249.835,78.363 249.653,78.891 C249.47,79.42 249.21,79.867 248.873,80.226 C248.538,80.586 248.127,80.861 247.644,81.049 C247.158,81.236 246.609,81.33 245.998,81.33 C245.394,81.33 244.852,81.24 244.36,81.056 C243.869,80.873 243.449,80.599 243.099,80.233 C242.749,79.869 242.48,79.406 242.291,78.848 C242.102,78.29 242.008,77.63 242.008,76.868 L242.008,65.54 C242.008,65.441 241.978,65.353 241.911,65.274 C241.848,65.197 241.742,65.132 241.592,65.081 C241.446,65.032 241.249,64.991 241,64.964 C240.752,64.934 240.442,64.921 240.067,64.921 C239.681,64.921 239.366,64.934 239.118,64.964 C238.871,64.991 238.672,65.032 238.517,65.081 C238.363,65.133 238.257,65.197 238.2,65.274 C238.14,65.353 238.11,65.441 238.11,65.54 L238.11,77.211 C238.11,78.435 238.286,79.505 238.637,80.42 C238.987,81.333 239.491,82.097 240.155,82.709 C240.818,83.324 241.628,83.781 242.587,84.081 C243.545,84.382 244.627,84.534 245.834,84.534 C247.118,84.534 248.255,84.364 249.245,84.027 C250.231,83.693 251.062,83.204 251.736,82.561 C252.407,81.917 252.915,81.133 253.262,80.205 C253.607,79.277 253.781,78.223 253.781,77.046 L253.781,65.539 L253.783,65.539 Z M234.118,65.853 C234.095,65.647 234.056,65.48 234.005,65.355 C233.958,65.233 233.898,65.143 233.82,65.087 C233.748,65.035 233.666,65.008 233.578,65.008 L220.056,65.008 C219.957,65.008 219.873,65.035 219.805,65.087 C219.737,65.143 219.676,65.233 219.625,65.355 C219.577,65.48 219.539,65.647 219.518,65.853 C219.49,66.061 219.479,66.311 219.479,66.609 C219.479,66.894 219.49,67.141 219.518,67.342 C219.539,67.544 219.578,67.709 219.625,67.831 C219.676,67.955 219.736,68.047 219.805,68.105 C219.873,68.165 219.957,68.193 220.056,68.193 L224.86,68.193 L224.86,83.658 C224.86,83.759 224.892,83.845 224.957,83.924 C225.02,84.003 225.126,84.068 225.276,84.117 C225.424,84.168 225.624,84.205 225.877,84.237 C226.13,84.264 226.442,84.279 226.817,84.279 C227.193,84.279 227.505,84.264 227.758,84.237 C228.011,84.205 228.213,84.168 228.359,84.117 C228.508,84.067 228.614,84.003 228.676,83.924 C228.742,83.845 228.775,83.759 228.775,83.658 L228.775,68.193 L233.579,68.193 C233.667,68.193 233.749,68.165 233.821,68.105 C233.898,68.046 233.959,67.955 234.006,67.831 C234.058,67.709 234.096,67.544 234.119,67.342 C234.143,67.141 234.156,66.894 234.156,66.609 C234.155,66.311 234.143,66.061 234.118,65.853 M219.577,81.813 C219.552,81.609 219.517,81.446 219.466,81.324 C219.417,81.202 219.355,81.112 219.281,81.056 C219.207,81.002 219.119,80.975 219.022,80.975 L212.987,80.975 L212.987,65.539 C212.987,65.44 212.954,65.352 212.89,65.273 C212.824,65.196 212.719,65.131 212.572,65.08 C212.424,65.031 212.225,64.99 211.977,64.963 C211.731,64.933 211.415,64.92 211.029,64.92 C210.654,64.92 210.34,64.933 210.087,64.963 C209.835,64.99 209.636,65.031 209.488,65.08 C209.339,65.132 209.233,65.196 209.17,65.273 C209.105,65.352 209.073,65.44 209.073,65.539 L209.073,82.961 C209.073,83.397 209.183,83.71 209.407,83.902 C209.628,84.095 209.902,84.191 210.228,84.191 L219.022,84.191 C219.119,84.191 219.207,84.162 219.281,84.101 C219.354,84.043 219.417,83.947 219.466,83.812 C219.518,83.681 219.552,83.512 219.577,83.31 C219.6,83.107 219.616,82.858 219.616,82.56 C219.616,82.265 219.601,82.014 219.577,81.813 M203.203,65.539 C203.203,65.44 203.175,65.352 203.115,65.273 C203.056,65.196 202.953,65.131 202.803,65.08 C202.654,65.031 202.461,64.99 202.217,64.963 C201.976,64.933 201.665,64.92 201.29,64.92 C200.915,64.92 200.601,64.933 200.349,64.963 C200.097,64.99 199.897,65.031 199.749,65.08 C199.6,65.132 199.497,65.196 199.438,65.273 C199.377,65.352 199.347,65.44 199.347,65.539 L199.347,77.092 C199.347,77.763 199.257,78.363 199.073,78.891 C198.891,79.42 198.632,79.867 198.297,80.226 C197.96,80.586 197.55,80.861 197.066,81.049 C196.582,81.236 196.033,81.33 195.421,81.33 C194.817,81.33 194.271,81.24 193.78,81.056 C193.291,80.873 192.872,80.599 192.52,80.233 C192.169,79.869 191.901,79.406 191.712,78.848 C191.525,78.29 191.432,77.63 191.432,76.868 L191.432,65.54 C191.432,65.441 191.399,65.353 191.334,65.274 C191.271,65.197 191.163,65.132 191.016,65.081 C190.867,65.032 190.669,64.991 190.424,64.964 C190.175,64.934 189.863,64.921 189.488,64.921 C189.101,64.921 188.786,64.934 188.539,64.964 C188.292,64.991 188.093,65.032 187.937,65.081 C187.785,65.133 187.679,65.197 187.619,65.274 C187.56,65.353 187.529,65.441 187.529,65.54 L187.529,77.211 C187.529,78.435 187.705,79.505 188.056,80.42 C188.407,81.333 188.915,82.097 189.577,82.709 C190.237,83.324 191.048,83.781 192.007,84.081 C192.966,84.382 194.049,84.534 195.254,84.534 C196.54,84.534 197.675,84.364 198.665,84.027 C199.652,83.693 200.482,83.204 201.154,82.561 C201.826,81.917 202.336,81.133 202.682,80.205 C203.029,79.277 203.2,78.223 203.2,77.046 L203.2,65.539 L203.203,65.539 Z M183.57,83.294 C183.526,83.161 183.394,82.893 183.176,82.487 L177.438,73.814 L182.703,66.918 C182.95,66.534 183.117,66.251 183.208,66.073 C183.296,65.894 183.34,65.723 183.34,65.556 C183.34,65.454 183.311,65.367 183.252,65.287 C183.191,65.208 183.084,65.141 182.934,65.086 C182.78,65.034 182.574,64.989 182.316,64.962 C182.06,64.932 181.734,64.919 181.34,64.919 C180.952,64.919 180.636,64.927 180.389,64.946 C180.144,64.966 179.939,65 179.782,65.05 C179.623,65.101 179.497,65.165 179.397,65.251 C179.298,65.335 179.214,65.439 179.145,65.57 L173.525,73.722 L173.525,65.555 C173.525,65.446 173.496,65.351 173.437,65.272 C173.377,65.195 173.275,65.13 173.125,65.079 C172.976,65.03 172.778,64.989 172.531,64.962 C172.284,64.932 171.968,64.919 171.584,64.919 C171.206,64.919 170.894,64.932 170.642,64.962 C170.389,64.989 170.19,65.03 170.041,65.079 C169.894,65.131 169.785,65.195 169.723,65.272 C169.659,65.351 169.626,65.446 169.626,65.555 L169.626,83.626 C169.626,83.735 169.658,83.828 169.723,83.907 C169.786,83.986 169.894,84.054 170.041,84.108 C170.189,84.162 170.389,84.203 170.642,84.235 C170.894,84.262 171.206,84.277 171.584,84.277 C171.968,84.277 172.284,84.262 172.531,84.235 C172.778,84.203 172.975,84.162 173.125,84.108 C173.275,84.054 173.377,83.986 173.437,83.907 C173.496,83.828 173.525,83.735 173.525,83.626 L173.525,74.523 L179.323,83.626 C179.392,83.766 179.487,83.884 179.612,83.982 C179.735,84.081 179.937,84.155 180.219,84.203 C180.501,84.254 180.962,84.277 181.606,84.277 C182.012,84.277 182.347,84.262 182.613,84.235 C182.882,84.203 183.092,84.162 183.246,84.108 C183.397,84.054 183.502,83.984 183.555,83.9 C183.61,83.816 183.637,83.72 183.637,83.611 C183.636,83.534 183.614,83.429 183.57,83.294 M143.005,77.876 C143.072,77.63 143.183,77.388 143.33,77.149 C143.478,76.914 143.667,76.677 143.899,76.446 C144.132,76.213 144.422,75.99 144.766,75.769 C145.074,76.126 145.423,76.503 145.812,76.905 C146.203,77.306 146.61,77.707 147.037,78.114 C147.461,78.517 147.897,78.923 148.347,79.321 C148.797,79.719 149.245,80.101 149.692,80.455 C149.472,80.614 149.24,80.76 148.987,80.893 C148.735,81.028 148.466,81.142 148.186,81.234 C147.905,81.329 147.617,81.404 147.325,81.457 C147.034,81.511 146.741,81.539 146.443,81.539 C145.87,81.539 145.363,81.466 144.924,81.324 C144.485,81.18 144.115,80.979 143.819,80.721 C143.523,80.466 143.295,80.159 143.137,79.804 C142.979,79.446 142.89898,79.058 142.89898,78.631 C142.898,78.376 142.934,78.123 143.005,77.876 M144.695,68.084 C144.783,67.853 144.921,67.648 145.11,67.477 C145.297,67.304 145.535,67.168 145.827,67.075 C146.12,66.982 146.473,66.935 146.889,66.935 C147.264,66.935 147.59,66.978 147.868,67.068 C148.144,67.156 148.377,67.278 148.563,67.43 C148.751,67.584 148.89,67.765 148.978,67.973 C149.068,68.178 149.112,68.404 149.112,68.639 C149.112,68.905 149.064,69.166 148.966,69.417 C148.868,69.668 148.697,69.921 148.461,70.174 C148.224,70.427 147.909,70.687 147.519,70.952 C147.129,71.217 146.641,71.512 146.059,71.827 C145.822,71.512 145.61,71.216 145.42,70.943 C145.233,70.671 145.078,70.416 144.954,70.173 C144.83,69.93 144.732,69.699 144.665,69.474 C144.595,69.253 144.562,69.039 144.562,68.831 C144.562,68.564 144.605,68.315 144.695,68.084 M139.135,80.625 C139.313,81.165 139.558,81.643 139.874,82.065 C140.192,82.485 140.571,82.847 141.018,83.154 C141.461,83.461 141.954,83.716 142.493,83.918 C143.031,84.119 143.607,84.272 144.219,84.37 C144.834,84.469 145.459,84.517 146.103,84.517 C146.755,84.517 147.368,84.472 147.943,84.382 C148.516,84.294 149.071,84.167 149.609,83.998 C150.149,83.829 150.665,83.621 151.159,83.368 C151.653,83.117 152.134,82.832 152.597,82.516 C153.131,82.911 153.6,83.234 154.006,83.487 C154.412,83.738 154.769,83.942 155.073,84.094 C155.381,84.248 155.648,84.351 155.881,84.407 C156.113,84.459 156.34,84.489 156.558,84.489 C156.834,84.489 157.071,84.459 157.268,84.407 C157.467,84.351 157.607,84.292 157.691,84.229 C157.777,84.163 157.836,84.082 157.869,83.983 C157.903,83.884 157.929,83.729 157.943,83.524 C157.959,83.316 157.965,83.031 157.965,82.665 C157.965,82.317 157.951,82.056 157.921,81.878 C157.89,81.7 157.846,81.578 157.787,81.507 C157.727,81.439 157.65,81.404 157.558,81.404 L157.252,81.404 C157.173,81.404 157.074,81.384 156.956,81.343 C156.837,81.305 156.688,81.232 156.511,81.129 C156.332,81.025 156.117,80.885 155.867,80.706 C155.614,80.526 155.316,80.306 154.969,80.04 C155.206,79.673 155.424,79.281 155.621,78.86 C155.819,78.438 155.985,78.001 156.117,77.542 C156.251,77.081 156.351,76.607 156.423,76.125 C156.49,75.641 156.526,75.162 156.526,74.685 L156.526,74.211 C156.526,74.084 156.501,73.978 156.445,73.894 C156.39,73.81 156.296,73.744 156.164,73.695 C156.03,73.643 155.85,73.613 155.622,73.596 C155.396,73.58 155.108,73.575 154.762,73.575 C154.398,73.575 154.099,73.588 153.866,73.613 C153.633,73.637 153.455,73.674 153.332,73.722 C153.208,73.772 153.126,73.836 153.087,73.915 C153.047,73.994 153.027,74.089 153.027,74.198 L153.027,74.656 C153.027,74.944 153.005,75.233 152.961,75.531 C152.917,75.827 152.858,76.119 152.783,76.406 C152.709,76.693 152.619,76.963 152.516,77.22 C152.412,77.48 152.296,77.704 152.166,77.904 C151.83,77.615 151.485,77.306 151.13,76.969 C150.775,76.635 150.421,76.294 150.069,75.953 C149.717,75.614 149.378,75.27 149.047,74.93 C148.715,74.589 148.417,74.266 148.149,73.959 C148.97,73.534 149.686,73.11 150.298,72.692 C150.913,72.271 151.424,71.832 151.835,71.378 C152.243,70.924 152.55,70.445 152.752,69.94 C152.954,69.438 153.057,68.889 153.057,68.298 C153.057,67.633 152.939,67.039 152.703,66.51 C152.465,65.98 152.103,65.534 151.62,65.174 C151.135,64.814 150.516,64.533 149.765,64.336 C149.015,64.139 148.121,64.04 147.083,64.04 C145.945,64.04 144.974,64.171 144.161,64.433 C143.35,64.694 142.684,65.048 142.161,65.494 C141.637,65.94 141.25,66.463 141.005,67.072 C140.756,67.68 140.634,68.33 140.634,69.02 C140.634,69.348 140.676,69.678 140.758,70.008 C140.844,70.338 140.972,70.688 141.145,71.054 C141.319,71.419 141.536,71.803 141.797,72.201 C142.059,72.604 142.368,73.028 142.723,73.483 C142.092,73.86 141.535,74.246 141.055,74.64 C140.576,75.035 140.175,75.451 139.848,75.888 C139.52,76.321 139.277,76.782 139.116,77.273 C138.95,77.761 138.868927,78.283 138.868927,78.837 C138.866,79.493 138.956,80.087 139.135,80.625 M128.843,73.889 C128.817,73.69 128.775,73.534 128.716,73.413 C128.656,73.295 128.586,73.209 128.5,73.162 C128.418,73.111 128.315,73.087 128.198,73.087 L122.029,73.087 C121.784,73.087 121.605,73.201 121.495,73.428 C121.389,73.656 121.334,74.046 121.334,74.599 C121.334,75.164 121.389,75.562 121.495,75.793 C121.605,76.024 121.784,76.14 122.029,76.14 L128.198,76.14 C128.434,76.14 128.608,76.029 128.716,75.801 C128.826,75.572 128.881,75.173 128.881,74.599 C128.881,74.322 128.868,74.086 128.843,73.889 M119.134,65.853 C119.11,65.647 119.072,65.48 119.024,65.355 C118.974,65.233 118.913,65.143 118.837,65.087 C118.764,65.035 118.682,65.008 118.594,65.008 L105.072,65.008 C104.973,65.008 104.889,65.035 104.82,65.087 C104.752,65.143 104.692,65.233 104.642,65.355 C104.593,65.48 104.556,65.647 104.532,65.853 C104.506,66.061 104.495,66.311 104.495,66.609 C104.495,66.894 104.506,67.141 104.532,67.342 C104.556,67.544 104.594,67.709 104.642,67.831 C104.692,67.955 104.751,68.047 104.82,68.105 C104.889,68.165 104.973,68.193 105.072,68.193 L109.875,68.193 L109.875,83.658 C109.875,83.759 109.908,83.845 109.972,83.924 C110.036,84.003 110.144,84.068 110.29,84.117 C110.44,84.168 110.64,84.205 110.892,84.237 C111.145,84.264 111.458,84.279 111.833,84.279 C112.209,84.279 112.522,84.264 112.775,84.237 C113.027,84.205 113.227,84.168 113.375,84.117 C113.523,84.067 113.629,84.003 113.693,83.924 C113.758,83.845 113.79,83.759 113.79,83.658 L113.79,68.193 L118.595,68.193 C118.683,68.193 118.765,68.165 118.838,68.105 C118.913,68.046 118.975,67.955 119.025,67.831 C119.074,67.709 119.111,67.544 119.135,67.342 C119.159,67.141 119.172,66.894 119.172,66.609 C119.171,66.311 119.158,66.061 119.134,65.853 M102.042,83.294 C101.998,83.161 101.866,82.893 101.648,82.487 L95.911,73.814 L101.175,66.918 C101.423,66.534 101.59,66.251 101.68,66.073 C101.768,65.894 101.812,65.723 101.812,65.556 C101.812,65.454 101.783,65.367 101.724,65.287 C101.665,65.207 101.559,65.141 101.406,65.086 C101.253,65.034 101.046,64.989 100.79,64.962 C100.532,64.932 100.208,64.919 99.812,64.919 C99.426,64.919 99.11,64.927 98.861,64.946 C98.615,64.966 98.414,65 98.255,65.05 C98.095,65.101 97.968,65.165 97.869,65.251 C97.77,65.335 97.687,65.439 97.616,65.57 L91.996,73.722 L91.996,65.555 C91.996,65.446 91.968,65.351 91.908,65.272 C91.849,65.195 91.746,65.13 91.597,65.079 C91.449,65.03 91.25,64.989 91.004,64.962 C90.755,64.932 90.439,64.919 90.055,64.919 C89.678,64.919 89.366,64.932 89.113,64.962 C88.861,64.989 88.66,65.03 88.511,65.079 C88.365,65.131 88.257,65.195 88.193,65.272 C88.13,65.351 88.097,65.446 88.097,65.555 L88.097,83.626 C88.097,83.735 88.13,83.828 88.193,83.907 C88.257,83.986 88.365,84.054 88.511,84.108 C88.66,84.162 88.861,84.203 89.113,84.235 C89.366,84.262 89.678,84.277 90.055,84.277 C90.439,84.277 90.755,84.262 91.004,84.235 C91.25,84.203 91.449,84.162 91.597,84.108 C91.746,84.054 91.849,83.986 91.908,83.907 C91.968,83.828 91.996,83.735 91.996,83.626 L91.996,74.523 L97.793,83.626 C97.864,83.766 97.96,83.884 98.083,83.982 C98.207,84.081 98.409,84.155 98.692,84.203 C98.973,84.254 99.436,84.277 100.077,84.277 C100.483,84.277 100.819,84.262 101.087,84.235 C101.353,84.203 101.563,84.162 101.717,84.108 C101.868,84.054 101.974,83.984 102.028,83.9 C102.083,83.816 102.11,83.72 102.11,83.611 C102.109,83.534 102.086,83.429 102.042,83.294 M82.92,81.945 C82.895,81.755 82.857,81.597 82.807,81.48 C82.759,81.36 82.698,81.272 82.623,81.22 C82.549,81.164 82.467,81.136 82.377,81.136 L75.469,81.136 L75.469,75.726 L81.267,75.726 C81.355,75.726 81.437,75.7 81.51,75.651 C81.585,75.601 81.646,75.52 81.697,75.407 C81.745,75.293 81.782,75.143 81.806,74.954 C81.833,74.767 81.844,74.53 81.844,74.245 C81.844,73.966 81.833,73.732 81.806,73.54 C81.782,73.347 81.745,73.192 81.697,73.081 C81.647,72.967 81.586,72.884 81.51,72.828 C81.437,72.772 81.355,72.746 81.267,72.746 L75.469,72.746 L75.469,68.06 L82.318,68.06 C82.408,68.06 82.486,68.034 82.555,67.978 C82.625,67.924 82.685,67.836 82.733,67.719 C82.783,67.601 82.821,67.445 82.844,67.251 C82.868,67.061 82.882,66.824 82.882,66.548 C82.882,66.25 82.869,66.006 82.844,65.813 C82.821,65.621 82.783,65.463 82.733,65.339 C82.685,65.217 82.625,65.131 82.555,65.079 C82.487,65.03 82.408,65.007 82.318,65.007 L72.74,65.007 C72.415,65.007 72.141,65.103 71.917,65.296 C71.695,65.489 71.586,65.802 71.586,66.237 L71.586,82.96 C71.586,83.396 71.695,83.709 71.917,83.901 C72.141,84.094 72.416,84.19 72.74,84.19 L82.377,84.19 C82.467,84.19 82.548,84.163 82.623,84.109 C82.698,84.055 82.759,83.967 82.807,83.849 C82.857,83.729 82.895,83.575 82.92,83.382 C82.943,83.189 82.957,82.951 82.957,82.664 C82.957,82.378 82.943,82.139 82.92,81.945 M65.731,65.512 C65.731,65.413 65.698,65.325 65.635,65.252 C65.571,65.177 65.461,65.117 65.31,65.065 C65.156,65.018 64.954,64.979 64.708,64.956 C64.459,64.931 64.15,64.92 63.772,64.92 C63.397,64.92 63.081,64.931 62.823,64.956 C62.567,64.979 62.366,65.019 62.224,65.065 C62.079,65.117 61.976,65.176 61.913,65.252 C61.849,65.325 61.816,65.413 61.816,65.512 L61.816,78.692 C61.816,79.176 61.781,79.573 61.713,79.878 C61.643,80.184 61.542,80.429 61.407,80.612 C61.274,80.795 61.107,80.924 60.905,80.996 C60.701,81.071 60.467,81.11 60.2,81.11 C59.932,81.11 59.7,81.076 59.502,81.013 C59.304,80.949 59.133,80.88 58.983,80.812 C58.834,80.743 58.702,80.676 58.584,80.612 C58.465,80.546 58.36,80.516 58.272,80.516 C58.173,80.516 58.092,80.541 58.027,80.597 C57.963,80.653 57.914,80.745 57.879,80.878 C57.845,81.013 57.82,81.192 57.805,81.427 C57.789,81.66 57.783,81.944 57.783,82.278 C57.783,82.538 57.787,82.748 57.799,82.917 C57.808,83.085 57.827,83.229 57.858,83.34 C57.886,83.453 57.921,83.546 57.961,83.614 C58.001,83.684 58.049,83.749 58.107,83.813 C58.167,83.879 58.287,83.95 58.465,84.027 C58.643,84.109 58.852,84.182 59.095,84.253 C59.336,84.321 59.602,84.377 59.894,84.422 C60.186,84.468 60.48,84.491 60.777,84.491 C61.705,84.491 62.486,84.36 63.119,84.102 C63.751,83.845 64.263,83.472 64.653,82.983 C65.045,82.495 65.321,81.901 65.486,81.207 C65.648,80.508 65.729,79.726 65.729,78.854 L65.729,65.512 L65.731,65.512 Z M50.811,77.187 C50.648,78.003 50.37,78.715 49.974,79.329 C49.579,79.944 49.058,80.427 48.417,80.782 C47.774,81.137 46.973,81.316 46.016,81.316 C45.057,81.316 44.259,81.161 43.628,80.85 C42.996,80.537 42.491,80.084 42.116,79.494 C41.74,78.9 41.475,78.186 41.316,77.349 C41.156,76.513 41.079,75.573 41.079,74.526 C41.079,73.626 41.161,72.773 41.322,71.968 C41.485,71.162 41.764,70.457 42.161,69.857 C42.556,69.253 43.074,68.772 43.718,68.41 C44.359,68.051 45.159,67.87 46.119,67.87 C47.068,67.87 47.857,68.031 48.49,68.35 C49.124,68.673 49.629,69.128 50.011,69.715 C50.391,70.301 50.66,71.008 50.819,71.833 C50.976,72.658 51.056,73.576 51.056,74.584 C51.056,75.503 50.975,76.371 50.811,77.187 M54.577,70.056 C54.198,68.834 53.633,67.823 52.887,67.025 C52.141,66.223 51.213,65.629 50.099,65.244 C48.988,64.86 47.706,64.668 46.253,64.668 C44.73,64.668 43.393,64.899 42.242,65.362 C41.09,65.827 40.124,66.496 39.343,67.364 C38.564,68.234 37.975,69.289 37.58,70.53 C37.183,71.769 36.985,73.168 36.985,74.719 C36.985,76.408 37.173,77.87 37.544,79.108 C37.915,80.342 38.47,81.361 39.212,82.16 C39.951,82.962 40.879,83.556 41.991,83.948 C43.101,84.339 44.406,84.534 45.898,84.534 C47.408,84.534 48.741,84.302 49.894,83.844 C51.044,83.385 52.01,82.718 52.791,81.844 C53.572,80.969 54.161,79.904 54.556,78.65 C54.951,77.393 55.149,75.97 55.149,74.379 C55.148,72.717 54.957,71.275 54.577,70.056 M28.388,71.797 C28.25,72.133 28.044,72.423 27.767,72.665 C27.49,72.907 27.143,73.094 26.728,73.227 C26.313,73.362 25.828,73.428 25.274,73.428 L23.288,73.428 L23.288,67.988 L25.038,67.988 C25.484,67.988 25.831,68.001 26.083,68.033 C26.336,68.061 26.559,68.099 26.759,68.151 C27.411,68.329 27.878,68.635 28.167,69.071 C28.454,69.506 28.597,70.04 28.597,70.67 C28.597,71.085 28.526,71.46 28.388,71.797 M33.549,83.278 C33.499,83.107 33.4,82.833 33.253,82.455 L31.636,78.676 C31.448,78.222 31.255,77.815 31.057,77.454 C30.859,77.093 30.649,76.77 30.427,76.489 C30.205,76.209 29.969,75.968 29.716,75.769 C29.464,75.572 29.194,75.404 28.909,75.267 C29.502,75.079 30.03,74.831 30.496,74.525 C30.959,74.218 31.349,73.856 31.665,73.443 C31.981,73.027 32.22,72.555 32.385,72.026 C32.547,71.496 32.628,70.913 32.628,70.27 C32.628,69.509 32.515,68.833 32.288,68.247 C32.06,67.659 31.731,67.149 31.302,66.718 C30.872,66.289 30.347,65.943 29.731,65.674 C29.111,65.406 28.418,65.22 27.647,65.111 C27.379,65.081 27.083,65.057 26.758,65.038 C26.431,65.019 26.016,65.009 25.511,65.009 L20.545,65.009 C20.218,65.009 19.943,65.105 19.722,65.298 C19.498,65.491 19.389,65.804 19.389,66.239 L19.389,83.659 C19.389,83.76 19.417,83.846 19.477,83.925 C19.536,84.004 19.641,84.069 19.788,84.118 C19.938,84.169 20.138,84.206 20.391,84.238 C20.642,84.265 20.954,84.28 21.332,84.28 C21.717,84.28 22.032,84.265 22.281,84.238 C22.526,84.206 22.725,84.169 22.874,84.118 C23.023,84.068 23.128,84.004 23.192,83.925 C23.255,83.846 23.288,83.76 23.288,83.659 L23.288,76.35 L24.505,76.35 C24.92,76.35 25.286,76.413 25.603,76.543 C25.918,76.67 26.198,76.86 26.439,77.113 C26.682,77.366 26.902,77.679 27.099,78.054 C27.297,78.429 27.499,78.86 27.708,79.342 L29.426,83.627 C29.466,83.745 29.516,83.848 29.575,83.932 C29.635,84.015 29.736,84.084 29.878,84.14 C30.021,84.194 30.216,84.232 30.464,84.251 C30.71,84.271 31.041,84.278 31.457,84.278 C31.952,84.278 32.341,84.27 32.628,84.251 C32.916,84.231 33.133,84.195 33.28,84.146 C33.43,84.097 33.524,84.037 33.564,83.962 C33.604,83.887 33.6230278,83.797 33.6230278,83.688 C33.624,83.59 33.598,83.452 33.549,83.278 M10.379,72.484 C10.241,72.907 10.036,73.267 9.77,73.569 C9.503,73.87 9.16,74.105 8.739,74.272 C8.32,74.442 7.799,74.525 7.176,74.525 L5.426,74.525 L5.426,68.015 L7.087,68.015 C7.493,68.015 7.885,68.044 8.265,68.096 C8.648,68.152 9.01,68.283 9.356,68.491 C9.701,68.699 9.993,69.018 10.23,69.453 C10.468,69.891 10.586,70.444 10.586,71.115 C10.585,71.61 10.518,72.066 10.379,72.484 M14.337,68.721 C14.119,68.093 13.804,67.544 13.388,67.075 C12.973,66.607 12.471,66.22 11.883,65.911 C11.295,65.606 10.715,65.396 10.141,65.283 C9.566,65.167 9.075,65.094 8.666,65.059 C8.256,65.025 7.824,65.008 7.369,65.008 L2.847,65.008 C2.451,65.008 2.131,65.123 1.889,65.355 C1.648,65.589 1.527,65.936 1.527,66.401 L1.527,83.659 C1.527,83.76 1.556,83.846 1.615,83.925 C1.674,84.004 1.778,84.069 1.927,84.118 C2.076,84.169 2.276,84.206 2.529,84.238 C2.779,84.265 3.092,84.28 3.469,84.28 C3.855,84.28 4.171,84.265 4.419,84.238 C4.666,84.206 4.863,84.169 5.012,84.118 C5.16,84.068 5.267,84.004 5.33,83.925 C5.394,83.846 5.426,83.76 5.426,83.659 L5.426,77.534 L7.027,77.534 C8.294,77.534 9.394,77.388 10.327,77.093 C11.262,76.795 12.049,76.364 12.69,75.794 C13.333,75.226 13.823,74.526 14.159,73.697 C14.495,72.865 14.6630068,71.911 14.6630068,70.833 C14.664,70.054 14.555,69.349 14.337,68.721" id="Shape" fill="#C1B5A2" fill-rule="nonzero" mask="url(#mask-2)"></path>
            </g>
            <g id="Clipped">
                <mask id="mask-4" fill="white">
                    <use xlink:href="#path-3"></use>
                </mask>
                <g id="SVGID_1_"></g>
                <path d="M366.947,54.06 L426.123,54.06 L426.123,41.27 L383.266,41.27 L383.266,32.743 L422.964,32.743 L422.964,21.716 L383.266,21.716 L383.266,13.188 L425.17,13.188 L425.17,0.838 L366.947,0.838 L366.947,54.06 L366.947,54.06 Z M302.109,14.07 L331.074,14.07 C338.055,14.07 340.776,16.053 340.776,23.625 L340.776,30.83 C340.776,38.403 338.055,40.387 331.074,40.387 L302.109,40.387 L302.109,14.07 Z M285.789,54.06 L335.042,54.06 C351.362,54.06 357.097,48.694 357.097,35.534 L357.097,19.36 C357.097,6.204 351.363,0.836 335.042,0.836 L285.789,0.836 L285.789,54.06 Z M208.969,54.06 L225.288,54.06 L225.288,40.24 L250.944,40.24 C256.016,40.24 257.632,42.078 257.632,47.664 L257.632,54.06 L273.953,54.06 L273.953,45.017 C273.953,36.269 269.909,34.138 265.058,33.254 L265.058,33.108 C272.557,31.346 274.173,27.155 274.173,20.025 L274.173,16.642 C274.173,7.085 270.79,0.836 258.221,0.836 L208.967,0.836 L208.967,54.06 L208.969,54.06 Z M225.288,14.07 L250.799,14.07 C255.945,14.07 258.296,14.951 258.296,19.656 L258.296,21.421 C258.296,25.243 256.68,27.008 252.268,27.008 L225.289,27.008 L225.289,14.07 L225.288,14.07 Z M142.808,24.583 C142.808,17.965 144.424,13.922 153.028,13.922 L172.139,13.922 C180.74,13.922 182.357,17.965 182.357,24.583 L182.357,30.315 C182.357,38.035 180.74,40.975 173.021,40.975 L152.144,40.975 C144.424,40.975 142.808,38.035 142.808,30.315 L142.808,24.583 L142.808,24.583 Z M126.046,35.39 C126.046,50.973 134.793,54.647 149.497,54.647 L175.668,54.647 C190.369,54.647 199.117,50.973 199.117,35.39 L199.117,19.509 C199.117,3.926 190.369,0.25 175.668,0.25 L149.497,0.25 C134.793,0.25 126.046,3.927 126.046,19.509 L126.046,35.39 Z M29.156,54.06 L45.035,54.06 L45.035,15.834 L45.183,15.834 L66.575,54.06 L78.778,54.06 L100.171,15.834 L100.317,15.834 L100.317,54.06 L116.195,54.06 L116.195,0.837 L91.128,0.837 L72.676,35.094 L54.225,0.837 L29.156,0.837 L29.156,54.06 Z M0.928,54.06 L17.247,54.06 L17.247,0.837 L0.928,0.837 L0.928,54.06 Z" id="Shape" fill="#C1B5A2" fill-rule="nonzero" mask="url(#mask-4)"></path>
            </g>
        </g>
    </g>
</svg>