<?xml version="1.0" encoding="UTF-8"?>
<svg width="100px" height="49px" viewBox="0 0 100 49" version="1.1" xmlns="http://www.w3.org/2000/svg" xmlns:xlink="http://www.w3.org/1999/xlink">
    <!-- Generator: Sketch 63.1 (92452) - https://sketch.com -->
    <title>Logo_MIA3</title>
    <desc>Created with Sketch.</desc>
    <defs>
        <linearGradient x1="50.000155%" y1="99.9999365%" x2="50.000155%" y2="-4.17370186e-14%" id="linearGradient-1">
            <stop stop-color="#8E1A51" offset="0%"></stop>
            <stop stop-color="#4578AA" offset="52%"></stop>
            <stop stop-color="#00D1FF" offset="100%"></stop>
        </linearGradient>
    </defs>
    <g id="Page-1" stroke="none" stroke-width="1" fill="none" fill-rule="evenodd">
        <g id="Logo_MIA3">
            <g id="Group" transform="translate(80.027847, 0.000000)">
                <polyline id="Path" fill="#000000" points="17.5710087 4.27625309 18.9469524 6.19050124 19.9704517 13.2095761 19.8043317 18.6732983 19.6381498 19.9702816 17.4115254 23.0003403 16.1604889 23.1986077 16.1153156 23.5985922 18.2090811 26.0512067 19.239341 28.1449876 19.6381498 30.8568533 19.717961 39.3016399 18.8139697 43.2198793 15.5570235 46.4769647 13.7623453 47.9126702 11.130198 48.1784963 8.57780012 48.7235767 4.0447401 46.6232209 0.711277847 43.4493657 0.422246287 37.6865408 0.009375 35.3422184 0.541754332 34.7253403 5.71488243 35.0244895 6.37438119 38.0055538 6.63801052 38.6165068 7.67517017 41.066414 9.89798886 41.4260365 10.5187345 41.066414 12.6573793 40.0693533 12.6723391 28.8628713 11.7148515 27.1323793 11.702599 27.1304455 11.6837098 27.0873917 8.26941522 26.6096225 8.01956993 20.1389078 9.86086015 20.3863088 12.4661974 19.7301052 13.4997989 15.9214418 13.1889697 13.7480043 12.6049041 12.2524134 13.7687191 10.5375309 12.2865408 7.90538366 9.8978651 7.32711943 6.8629177 8.60335705 5.82595916 13.6283571 3.87185953 13.0816832 0.855863243 13.4289295 0.123019802 12.0331219 0.481992574 5.6920328 4.2707302 1.34501856 9.00793626 0.731621287 10.2928063 2.03357683e-14 15.776315 1.91567141 17.5710087 4.27625309"></polyline>
                <polyline id="Path" fill="url(#linearGradient-1)" fill-rule="nonzero" points="17.5710087 4.27625309 18.9469524 6.19050124 19.9704517 13.2095761 19.8043317 18.6732983 19.6381498 19.9702816 17.4115254 23.0003403 16.1604889 23.1986077 16.1153156 23.5985922 18.2090811 26.0512067 19.239341 28.1449876 19.6381498 30.8568533 19.717961 39.3016399 18.8139697 43.2198793 15.5570235 46.4769647 13.7623453 47.9126702 11.130198 48.1784963 8.57780012 48.7235767 4.0447401 46.6232209 0.711277847 43.4493657 0.422246287 37.6865408 0.009375 35.3422184 0.541754332 34.7253403 5.71488243 35.0244895 6.37438119 38.0055538 6.63801052 38.6165068 7.67517017 41.066414 9.89798886 41.4260365 10.5187345 41.066414 12.6573793 40.0693533 12.6723391 28.8628713 11.7148515 27.1323793 11.702599 27.1304455 11.6837098 27.0873917 8.26941522 26.6096225 8.01956993 20.1389078 9.86086015 20.3863088 12.4661974 19.7301052 13.4997989 15.9214418 13.1889697 13.7480043 12.6049041 12.2524134 13.7687191 10.5375309 12.2865408 7.90538366 9.8978651 7.32711943 6.8629177 8.60335705 5.82595916 13.6283571 3.87185953 13.0816832 0.855863243 13.4289295 0.123019802 12.0331219 0.481992574 5.6920328 4.2707302 1.34501856 9.00793626 0.731621287 10.2928063 2.03357683e-14 15.776315 1.91567141 17.5710087 4.27625309"></polyline>
                <g fill-rule="nonzero" id="Path">
                    <polygon fill="#DBDEFA" points="0.122988861 12.0331219 5.8259901 13.6283571 3.87182859 11.5943998"></polygon>
                    <polygon fill="#51ABDB" points="0.122988861 12.0331219 3.87182859 13.0816832 0.855832302 13.4289295"></polygon>
                    <polygon fill="#80CBF7" points="4.2707302 5.33306002 5.82602104 13.6283725 3.87185953 11.5943998"></polygon>
                    <polygon fill="#9FE0FF" points="4.2707302 5.33306002 0.123019802 12.0331219 3.87185953 11.5943998 4.2707302 5.33306002"></polygon>
                    <polygon fill="#90D8FC" points="4.2707302 5.33306002 0.123019802 12.0331219 1.87780012 6.52950186"></polygon>
                    <polygon fill="#96E1FF" points="4.2707302 5.33306002 4.8490099 3.099737 1.87780012 6.52950186 4.2707302 5.33306002"></polygon>
                    <polygon fill="#93DFFF" points="4.2707302 5.33306002 4.8490099 3.099737 10.6515934 2.22230817"></polygon>
                    <polygon fill="#93DFFF" points="10.292698 0 4.84890161 3.099737 10.6514851 2.22230817"></polygon>
                    <polygon fill="#92DFFF" points="10.292698 0 16.3943843 6.52950186 10.6514851 2.22230817 10.292698 4.39692287e-16"></polygon>
                    <polygon fill="#96D7F6" points="10.292698 0 16.3943843 6.52950186 17.5709004 4.27625309 10.292698 8.79384574e-16"></polygon>
                    <polygon fill="#3BC4E9" points="10.292698 0 15.7762067 1.91567141 17.5709004 4.27625309"></polygon>
                    <polygon fill="#B1E7FF" points="10.6116955 6.17059097 16.3944926 6.52950186 10.6515934 2.22230817 10.6116955 6.17059097"></polygon>
                    <polygon fill="#3BC3E8" points="9.00788985 0.731621287 4.84896349 3.099737 4.27068379 1.34501856"></polygon>
                    <polygon fill="#3AA4D5" points="4.2707302 1.34501856 4.8490099 3.099737 1.87780012 6.52950186"></polygon>
                    <polygon fill="#47BFE3" points="4.2707302 1.34501856 0.481992574 5.6920328 1.87780012 6.52950186 4.2707302 1.34501856"></polygon>
                    <polygon fill="#3A92C9" points="0.122988861 12.0331219 0.481961634 5.6920328 1.87776918 6.52950186 0.122988861 12.0331219"></polygon>
                    <polygon fill="#87D3FB" points="4.2707302 5.33306002 5.82602104 13.6283725 6.86297958 8.60335705 4.2707302 5.33306002"></polygon>
                    <polygon fill="#BEE9FF" points="4.2707302 5.33306002 8.57780012 6.52950186 6.86297958 8.60335705 4.2707302 5.33306002"></polygon>
                    <polygon fill="#AEECFF" points="4.2707302 5.33306002 8.57780012 6.52950186 10.6515934 2.22230817 4.2707302 5.33306002"></polygon>
                    <polygon fill="#96DCFD" points="10.6316522 6.17059097 8.57778465 6.52950186 10.651578 2.22230817 10.6316522 6.17059097"></polygon>
                    <polygon fill="#7AD5FE" points="9.89789604 7.32711943 8.5777073 6.52950186 6.86288676 8.60335705"></polygon>
                    <polygon fill="#D9F0FF" points="9.89789604 7.32711943 8.5777073 6.52950186 10.6315749 6.17059097 9.89789604 7.32711943"></polygon>
                    <polygon fill="#CFEAFE" points="9.89789604 7.32711943 12.2866337 7.90538366 10.6315749 6.17059097"></polygon>
                    <polygon fill="#B5E5FF" points="16.3944926 6.52950186 12.2867265 7.90538366 10.6316677 6.17059097"></polygon>
                    <polygon fill="#88D7FF" points="16.3944926 6.52950186 12.2867265 7.90538366 16.0157178 10.5375309 16.3944926 6.52950186"></polygon>
                    <polygon fill="#63C1EB" points="14.8125 10.7967822 12.2866491 7.90538366 16.0156405 10.5375309 14.8125 10.7967822"></polygon>
                    <polygon fill="#3D83BD" points="14.8125 10.7967822 12.2866491 7.90538366 15.3974783 13.4289295"></polygon>
                    <polygon fill="#64BBE6" points="14.8125 10.7967822 18.8072556 9.93934097 15.3974783 13.4289295 14.8125 10.7967822"></polygon>
                    <polygon fill="#57A5D6" points="18.5081993 19.5173267 18.8072865 9.93927908 15.3975093 13.4288676 18.5081993 19.5173267"></polygon>
                    <polygon fill="#5DA1D6" points="18.5081993 19.5173267 13.5031095 15.92138 15.3975093 13.4288676"></polygon>
                    <polygon fill="#8BB6EB" points="18.5081993 19.5173267 13.5031095 15.92138 16.6071627 19.7300433"></polygon>
                    <polygon fill="#97C3FC" points="12.46612 19.7215347 15.0716275 17.8404703 16.6071318 19.7215347 12.4661046 19.7215347"></polygon>
                    <polygon fill="#87ABEE" points="12.46612 19.7215347 13.512995 23.0475866 16.6155631 19.7292079 12.4661046 19.7215347"></polygon>
                    <polygon fill="#7FA2E1" points="12.46612 19.7102413 13.512995 23.0003868 11.2098546 20.5676207 12.4661046 19.7102413"></polygon>
                    <polygon fill="#7AA6E7" points="12.46612 19.7102413 9.8607828 20.3863552 11.2098546 20.5676207 12.4661046 19.7102413"></polygon>
                    <polygon fill="#748DCE" points="11.5490408 23.7380879 8.69019183 20.9575031 11.2099165 20.5675278 11.5490408 23.7380879"></polygon>
                    <polygon fill="#8A94D4" points="11.5490408 23.7380879 8.69019183 20.9575031 9.01655322 25.6524134 11.5490408 23.7380879"></polygon>
                    <polygon fill="#839ADA" points="8.01949257 20.1389233 8.69735458 20.9664604 9.01649134 25.6524752"></polygon>
                    <polygon fill="#797FCC" points="8.01949257 20.1389233 8.26933787 26.609638 9.01649134 25.6524752"></polygon>
                    <polygon fill="#736FBD" points="11.6885829 27.0881807 8.26938428 26.6096999 9.01653775 25.6525371 11.6885829 27.0881807"></polygon>
                    <polygon fill="#D0B8EA" points="11.6885829 27.0881807 11.3894957 25.8519183 9.01653775 25.6525371 11.6885829 27.0881807"></polygon>
                    <polygon fill="#AFAAE0" points="11.5490408 23.7380879 11.3895111 25.8517946 9.01655322 25.6524134"></polygon>
                    <polygon fill="#A1A0DA" points="11.5490408 23.7224629 11.3895111 25.8517636 16.1153001 23.5985149 11.5490408 23.7224629"></polygon>
                    <polygon fill="#AEB1F1" points="17.1022587 26.0634282 11.3894647 25.85181 16.1152537 23.5985613 17.1022587 26.0634282"></polygon>
                    <polygon fill="#9292DF" points="17.1022587 26.0634282 11.3894647 25.85181 15.5569616 27.0880724"></polygon>
                    <polygon fill="#9286D3" points="17.1022587 26.0634282 19.2392791 28.1449567 15.5237624 27.1081219 17.1022587 26.0634282"></polygon>
                    <polygon fill="#B1A5E1" points="11.6885829 27.1081374 19.23931 28.1449722 15.5569926 27.0880879"></polygon>
                    <polygon fill="#76599D" points="11.6885829 27.0881807 19.23931 28.145065 19.6381188 30.8569307"></polygon>
                    <polygon fill="#9D73B3" points="13.6262376 28.0068069 18.973422 34.6587871 19.6381188 30.8568379 13.6262376 28.0068069"></polygon>
                    <polygon fill="#704389" points="13.6262376 28.0068069 18.973422 34.6587871 13.3368812 37.3974783 13.6262376 28.0068069"></polygon>
                    <polygon fill="#AA5EA0" points="12.6573329 40.0693069 18.9734066 34.6587717 13.363552 37.3574257 12.6573329 40.0693069"></polygon>
                    <polygon fill="#723271" points="12.6573329 40.0693069 18.9734066 34.6587717 12.805198 41.2391244 12.6573329 40.0693069"></polygon>
                    <polygon fill="#E492CC" points="16.1684715 40.4415223 16.4375928 37.3640934 12.8051671 41.2391399 16.1684715 40.4415223"></polygon>
                    <polygon fill="#71235F" points="16.1684715 40.4415223 17.2185953 41.504966 12.8051671 41.2391399 16.1684715 40.4415223"></polygon>
                    <polygon fill="#8DA9EF" points="11.5490408 23.7380879 13.5130569 23.0002939 11.2099165 20.5675278"></polygon>
                    <polygon fill="#842F6A" points="16.1444926 40.4364171 17.2186572 41.5049505 18.8272432 39.7860149"></polygon>
                    <polygon fill="#C45599" points="18.8271968 41.558323 17.1920483 41.5050743 18.8143719 39.7892327"></polygon>
                    <polygon fill="#A63177" points="18.8072401 41.558323 17.2119895 41.5050743 16.9858756 44.3146813"></polygon>
                    <polygon fill="#531033" points="15.5569307 46.4769493 17.2119895 41.5049814 16.9858756 44.3145885"></polygon>
                    <polygon fill="#570E33" points="15.5569307 46.4769493 14.6928527 44.8418007 16.6410736 43.2198639"></polygon>
                    <polygon fill="#A63779" points="12.805229 41.2391708 14.6929301 44.8418162 16.641151 43.2198793"></polygon>
                    <polygon fill="#A6377B" points="12.805229 41.2391708 14.6929301 44.8418162 10.7845606 45.1342667"></polygon>
                    <polygon fill="#9E3883" points="12.805229 41.2391708 10.5187191 41.066414 10.7845606 45.1342667"></polygon>
                    <polygon fill="#77257A" points="12.805229 41.2391708 10.5187191 41.066414 12.6573639 40.0693533 12.805229 41.2391708"></polygon>
                    <polygon fill="#9A3A78" points="12.805229 41.2391708 17.2186572 41.5049969 16.641151 43.2198793"></polygon>
                    <polygon fill="#5E0C32" points="15.5569307 46.4769493 14.6928527 44.8418007 13.7622525 47.9126547 15.5569307 46.4769493"></polygon>
                    <polygon fill="#D3598B" points="11.1301052 48.1785272 14.6928527 44.8418472 13.7622525 47.9127011"></polygon>
                    <polygon fill="#FFABD1" points="11.1301052 48.1785272 14.6928527 44.8418472 10.7844833 45.1342976 11.1301052 48.1785272"></polygon>
                    <polygon fill="#FFAED4" points="11.1301052 48.1785272 4.04464728 46.6232519 10.7844833 45.1342976 11.1301052 48.1785272"></polygon>
                    <polygon fill="#FFACD4" points="8.37824876 44.8418936 4.04463181 46.6232983 10.7844678 45.1343441"></polygon>
                    <polygon fill="#F18BBE" points="8.37824876 44.8418936 4.04463181 46.6232983 5.30745668 43.7385365"></polygon>
                    <polygon fill="#FDA2D2" points="4.32936262 42.4622525 4.04477104 46.6232519 5.30759592 43.7384901"></polygon>
                    <polygon fill="#80295D" points="4.32936262 42.4622525 4.04477104 46.6232519 0.711308787 43.4493967"></polygon>
                    <polygon fill="#832F6D" points="4.32936262 42.4622525 3.38915532 41.2357828 0.711308787 43.4493967 4.32936262 42.4622525"></polygon>
                    <polygon fill="#B25192" points="1.28960396 39.6008663 4.42543317 40.4051825 0.711277847 43.4494276"></polygon>
                    <polygon fill="#5F1A56" points="1.28960396 39.6008663 0.422246287 37.6866027 0.711277847 43.4494276"></polygon>
                    <polygon fill="#4C2046" points="1.28960396 39.6008663 4.42543317 40.4051825 0.422246287 37.6866027"></polygon>
                    <polygon fill="#522354" points="3.99149134 36.7693379 4.42535582 40.4051825 0.422168936 37.6865873"></polygon>
                    <polygon fill="#7B3A96" points="3.99149134 36.7693379 1.28952661 35.168487 0.422168936 37.6865873"></polygon>
                    <polygon fill="#793289" points="0.541769802 34.7254022 1.28961943 35.168487 0.422261757 37.6866027 0.541769802 34.7254022"></polygon>
                    <polygon fill="#672674" points="0.541769802 34.7254022 0.0093904703 35.3422803 0.422261757 37.6866027 0.541769802 34.7254022"></polygon>
                    <polygon fill="#B57AC8" points="3.99149134 36.7693379 0.54167698 34.7253868 5.71480507 35.0245359 3.99149134 36.7693379"></polygon>
                    <polygon fill="#6D347A" points="3.99149134 36.7693379 4.42535582 40.4051825 6.62362314 38.594245"></polygon>
                    <polygon fill="#D399DC" points="3.99149134 36.7693379 6.37430384 38.0056002 6.62362314 38.594245"></polygon>
                    <polygon fill="#B36DB3" points="3.99149134 36.7693379 6.37430384 38.0056002 5.71480507 35.0245359 3.99149134 36.7693379"></polygon>
                    <polygon fill="#A23A81" points="8.37824876 44.8418936 8.51129332 42.229672 5.30745668 43.7385365 8.37824876 44.8418936"></polygon>
                    <polygon fill="#8C3380" points="7.67048267 41.0663676 8.51129332 42.2295483 5.30745668 43.7384127 7.67048267 41.0663676"></polygon>
                    <polygon fill="#732A69" points="7.67048267 41.0663676 3.38901609 41.2357054 5.30745668 43.7384127"></polygon>
                    <polygon fill="#733276" points="6.77970297 41.1164913 3.3890625 41.2357364 6.62363861 38.5941832 6.77970297 41.1164913"></polygon>
                    <polygon fill="#752D6F" points="7.67048267 41.0663676 8.51129332 42.2295483 9.89788057 41.4259901"></polygon>
                    <polygon fill="#793289" points="6.77970297 41.1164913 6.62363861 38.5941832 7.67052908 41.0663985 6.77970297 41.1164913"></polygon>
                    <polygon fill="#A7397D" points="8.37824876 44.8418936 8.51129332 42.229672 10.7844678 45.1343441"></polygon>
                    <polygon fill="#812F70" points="10.5187191 41.0663676 8.51138614 42.2295483 10.7845606 45.1342203"></polygon>
                    <polygon fill="#FFA6C7" points="11.1301052 48.1785272 4.04464728 46.6232519 8.5777073 48.7236077"></polygon>
                    <polygon fill="#771E4E" points="18.8072401 41.558323 18.8138769 43.2199567 15.5569307 46.4770421 18.8072401 41.558323"></polygon>
                    <polygon fill="#521A3D" points="18.8138923 43.2198329 19.7178837 39.3015934 18.8072556 39.8034189"></polygon>
                    <polygon fill="#76336B" points="18.9733911 34.65888 16.4376083 37.3641863 18.8139078 39.8035272 18.9733911 34.65888"></polygon>
                    <polygon fill="#3D2437" points="18.9733911 34.65888 19.7178991 39.3017017 19.6380879 30.8569152"></polygon>
                    <polygon fill="#5C4496" points="13.6262376 28.0068069 12.6723082 28.8628403 13.3635675 37.3574412"></polygon>
                    <polyline fill="#50266E" points="12.6723391 28.8629332 13.3957611 37.3421411 12.6573793 40.0694152"></polyline>
                    <polygon fill="#5E529E" points="13.6262376 28.0068069 12.6723082 28.8628403 11.6885829 27.0880724"></polygon>
                    <polygon fill="#8675C4" points="17.1022587 26.0634282 19.2392791 28.1449567 18.2090192 26.0511757 17.1022587 26.0634282"></polygon>
                    <polygon fill="#9789C4" points="11.6885829 27.1081374 11.3894957 25.8518255 15.5704053 27.0880879"></polygon>
                    <polygon fill="#C6C7F3" points="17.1022587 26.0713181 18.2090192 26.0512686 16.1152537 23.5986541"></polygon>
                    <polygon fill="#9FA3DC" points="11.5490408 23.7380879 13.5130569 22.9903001 16.1153001 23.5985458 11.5490408 23.7380879"></polygon>
                    <polygon fill="#5C93DC" points="8.01949257 20.1389233 8.69735458 20.9664604 11.2098546 20.5675897"></polygon>
                    <polygon fill="#ABB8EB" points="16.1152537 23.5985458 13.5130105 23.0002939 16.6071473 19.7300588"></polygon>
                    <polygon fill="#76A0DD" points="16.3174505 21.8064666 18.5081683 19.5173731 16.6071318 19.7300897"></polygon>
                    <polygon fill="#91BCF8" points="16.3174505 21.8064666 18.5081683 19.5173731 17.411448 23.0003249 16.3174505 21.8064666"></polygon>
                    <polygon fill="#6BADFA" points="19.6381498 19.970297 18.5082457 19.5174041 17.4115254 23.0003558 19.6381498 19.970297"></polygon>
                    <polygon fill="#6CB8E8" points="19.6381498 19.970297 18.5082457 19.5174041 19.8043317 18.6733137"></polygon>
                    <polygon fill="#91B0F3" points="16.3174505 21.8064666 16.1604115 23.1985922 17.411448 23.0003249"></polygon>
                    <polygon fill="#86BFF9" points="12.46612 19.7300433 15.0716275 17.848979 13.5030786 15.92138 12.4661046 19.7300433"></polygon>
                    <polygon fill="#6CB8E8" points="13.1907488 13.7480043 13.5031869 15.9214418 15.3975866 13.4289295"></polygon>
                    <polygon fill="#428CC8" points="18.5081993 19.5173267 18.8072865 9.93927908 19.9704053 13.2095142"></polygon>
                    <polygon fill="#446EAD" points="18.5081993 19.5173267 19.8042853 18.6732364 19.9704053 13.2095142 18.5081993 19.5173267"></polygon>
                    <polygon fill="#3A8BC8" points="18.9469369 6.19050124 18.8073175 9.93934097 19.9704363 13.2095761 18.9469369 6.19050124"></polygon>
                    <polygon fill="#C2DAFA" points="13.1907488 13.7480043 13.7692141 10.5375309 15.3975866 13.4289295"></polygon>
                    <polygon fill="#43A6DB" points="12.6056621 12.2524134 13.1906405 13.7480043 13.7690903 10.5375309"></polygon>
                    <polygon fill="#64C1E9" points="16.3944926 6.52950186 18.8073329 9.95926671 16.0157178 10.5375309 16.3944926 6.52950186"></polygon>
                    <polygon fill="#7ECBED" points="16.3944926 6.52950186 18.8073329 9.95926671 17.7105507 6.17059097 16.3944926 6.52950186"></polygon>
                    <polygon fill="#50B9DE" points="18.9469369 6.18496287 18.8073175 9.93374072 17.7105353 6.18496287 18.9469369 6.18496287"></polygon>
                    <polygon fill="#50C3E6" points="18.9469369 6.18496287 17.5709932 4.27069926 17.7105353 6.18496287 18.9469369 6.18496287"></polygon>
                    <polygon fill="#8AD1F2" points="16.3944926 6.52950186 17.5710087 4.27625309 17.7105507 6.17059097 16.3944926 6.52950186"></polygon>
                    <polygon fill="#47223B" points="18.9733911 34.65888 19.7178991 39.3017017 18.8139078 39.8035272"></polygon>
                    <polygon fill="#803673" points="16.1684715 40.4415223 16.4375928 37.3640934 18.8138923 39.8034344"></polygon>
                </g>
                <g fill-rule="nonzero" id="Path">
                    <polygon fill="#DBDEFA" points="0.122988861 12.0331219 5.8259901 13.6283571 3.87182859 11.5943998"></polygon>
                    <polygon fill="#51ABDB" points="0.122988861 12.0331219 3.87182859 13.0816832 0.855832302 13.4289295"></polygon>
                    <polygon fill="#80CBF7" points="4.2707302 5.33306002 5.82602104 13.6283725 3.87185953 11.5943998"></polygon>
                    <polygon fill="#9FE0FF" points="4.2707302 5.33306002 0.123019802 12.0331219 3.87185953 11.5943998 4.2707302 5.33306002"></polygon>
                    <polygon fill="#90D8FC" points="4.2707302 5.33306002 0.123019802 12.0331219 1.87780012 6.52950186"></polygon>
                    <polygon fill="#96E1FF" points="4.2707302 5.33306002 4.8490099 3.099737 1.87780012 6.52950186 4.2707302 5.33306002"></polygon>
                    <polygon fill="#93DFFF" points="4.2707302 5.33306002 4.8490099 3.099737 10.6515934 2.22230817"></polygon>
                    <polygon fill="#93DFFF" points="10.292698 0 4.84890161 3.099737 10.6514851 2.22230817"></polygon>
                    <polygon fill="#92DFFF" points="10.292698 0 16.3943843 6.52950186 10.6514851 2.22230817 10.292698 4.39692287e-16"></polygon>
                    <polygon fill="#96D7F6" points="10.292698 0 16.3943843 6.52950186 17.5709004 4.27625309 10.292698 8.79384574e-16"></polygon>
                    <polygon fill="#3BC4E9" points="10.292698 0 15.7762067 1.91567141 17.5709004 4.27625309"></polygon>
                    <polygon fill="#B1E7FF" points="10.6116955 6.17059097 16.3944926 6.52950186 10.6515934 2.22230817 10.6116955 6.17059097"></polygon>
                    <polygon fill="#3BC3E8" points="9.00788985 0.731621287 4.84896349 3.099737 4.27068379 1.34501856"></polygon>
                    <polygon fill="#3AA4D5" points="4.2707302 1.34501856 4.8490099 3.099737 1.87780012 6.52950186"></polygon>
                    <polygon fill="#47BFE3" points="4.2707302 1.34501856 0.481992574 5.6920328 1.87780012 6.52950186 4.2707302 1.34501856"></polygon>
                    <polygon fill="#3A92C9" points="0.122988861 12.0331219 0.481961634 5.6920328 1.87776918 6.52950186 0.122988861 12.0331219"></polygon>
                    <polygon fill="#87D3FB" points="4.2707302 5.33306002 5.82602104 13.6283725 6.86297958 8.60335705 4.2707302 5.33306002"></polygon>
                    <polygon fill="#BEE9FF" points="4.2707302 5.33306002 8.57780012 6.52950186 6.86297958 8.60335705 4.2707302 5.33306002"></polygon>
                    <polygon fill="#AEECFF" points="4.2707302 5.33306002 8.57780012 6.52950186 10.6515934 2.22230817 4.2707302 5.33306002"></polygon>
                    <polygon fill="#96DCFD" points="10.6316522 6.17059097 8.57778465 6.52950186 10.651578 2.22230817 10.6316522 6.17059097"></polygon>
                    <polygon fill="#7AD5FE" points="9.89789604 7.32711943 8.5777073 6.52950186 6.86288676 8.60335705"></polygon>
                    <polygon fill="#D9F0FF" points="9.89789604 7.32711943 8.5777073 6.52950186 10.6315749 6.17059097 9.89789604 7.32711943"></polygon>
                    <polygon fill="#CFEAFE" points="9.89789604 7.32711943 12.2866337 7.90538366 10.6315749 6.17059097"></polygon>
                    <polygon fill="#B5E5FF" points="16.3944926 6.52950186 12.2867265 7.90538366 10.6316677 6.17059097"></polygon>
                    <polygon fill="#88D7FF" points="16.3944926 6.52950186 12.2867265 7.90538366 16.0157178 10.5375309 16.3944926 6.52950186"></polygon>
                    <polygon fill="#63C1EB" points="14.8125 10.7967822 12.2866491 7.90538366 16.0156405 10.5375309 14.8125 10.7967822"></polygon>
                    <polygon fill="#3D83BD" points="14.8125 10.7967822 12.2866491 7.90538366 15.3974783 13.4289295"></polygon>
                    <polygon fill="#64BBE6" points="14.8125 10.7967822 18.8072556 9.93934097 15.3974783 13.4289295 14.8125 10.7967822"></polygon>
                    <polygon fill="#57A5D6" points="18.5081993 19.5173267 18.8072865 9.93927908 15.3975093 13.4288676 18.5081993 19.5173267"></polygon>
                    <polygon fill="#5DA1D6" points="18.5081993 19.5173267 13.5031095 15.92138 15.3975093 13.4288676"></polygon>
                    <polygon fill="#8BB6EB" points="18.5081993 19.5173267 13.5031095 15.92138 16.6071627 19.7300433"></polygon>
                    <polygon fill="#97C3FC" points="12.46612 19.7215347 15.0716275 17.8404703 16.6071318 19.7215347 12.4661046 19.7215347"></polygon>
                    <polygon fill="#87ABEE" points="12.46612 19.7215347 13.512995 23.0475866 16.6155631 19.7292079 12.4661046 19.7215347"></polygon>
                    <polygon fill="#7FA2E1" points="12.46612 19.7102413 13.512995 23.0003868 11.2098546 20.5676207 12.4661046 19.7102413"></polygon>
                    <polygon fill="#7AA6E7" points="12.46612 19.7102413 9.8607828 20.3863552 11.2098546 20.5676207 12.4661046 19.7102413"></polygon>
                    <polygon fill="#748DCE" points="11.5490408 23.7380879 8.69019183 20.9575031 11.2099165 20.5675278 11.5490408 23.7380879"></polygon>
                    <polygon fill="#8A94D4" points="11.5490408 23.7380879 8.69019183 20.9575031 9.01655322 25.6524134 11.5490408 23.7380879"></polygon>
                    <polygon fill="#839ADA" points="8.01949257 20.1389233 8.69735458 20.9664604 9.01649134 25.6524752"></polygon>
                    <polygon fill="#797FCC" points="8.01949257 20.1389233 8.26933787 26.609638 9.01649134 25.6524752"></polygon>
                    <polygon fill="#736FBD" points="11.6885829 27.0881807 8.26938428 26.6096999 9.01653775 25.6525371 11.6885829 27.0881807"></polygon>
                    <polygon fill="#D0B8EA" points="11.6885829 27.0881807 11.3894957 25.8519183 9.01653775 25.6525371 11.6885829 27.0881807"></polygon>
                    <polygon fill="#AFAAE0" points="11.5490408 23.7380879 11.3895111 25.8517946 9.01655322 25.6524134"></polygon>
                    <polygon fill="#A1A0DA" points="11.5490408 23.7224629 11.3895111 25.8517636 16.1153001 23.5985149 11.5490408 23.7224629"></polygon>
                    <polygon fill="#AEB1F1" points="17.1022587 26.0634282 11.3894647 25.85181 16.1152537 23.5985613 17.1022587 26.0634282"></polygon>
                    <polygon fill="#9292DF" points="17.1022587 26.0634282 11.3894647 25.85181 15.5569616 27.0880724"></polygon>
                    <polygon fill="#9286D3" points="17.1022587 26.0634282 19.2392791 28.1449567 15.5237624 27.1081219 17.1022587 26.0634282"></polygon>
                    <polygon fill="#B1A5E1" points="11.6885829 27.1081374 19.23931 28.1449722 15.5569926 27.0880879"></polygon>
                    <polygon fill="#76599D" points="11.6885829 27.0881807 19.23931 28.145065 19.6381188 30.8569307"></polygon>
                    <polygon fill="#9D73B3" points="13.6262376 28.0068069 18.973422 34.6587871 19.6381188 30.8568379 13.6262376 28.0068069"></polygon>
                    <polygon fill="#704389" points="13.6262376 28.0068069 18.973422 34.6587871 13.3368812 37.3974783 13.6262376 28.0068069"></polygon>
                    <polygon fill="#AA5EA0" points="12.6573329 40.0693069 18.9734066 34.6587717 13.363552 37.3574257 12.6573329 40.0693069"></polygon>
                    <polygon fill="#723271" points="12.6573329 40.0693069 18.9734066 34.6587717 12.805198 41.2391244 12.6573329 40.0693069"></polygon>
                    <polygon fill="#E492CC" points="16.1684715 40.4415223 16.4375928 37.3640934 12.8051671 41.2391399 16.1684715 40.4415223"></polygon>
                    <polygon fill="#71235F" points="16.1684715 40.4415223 17.2185953 41.504966 12.8051671 41.2391399 16.1684715 40.4415223"></polygon>
                    <polygon fill="#8DA9EF" points="11.5490408 23.7380879 13.5130569 23.0002939 11.2099165 20.5675278"></polygon>
                    <polygon fill="#842F6A" points="16.1444926 40.4364171 17.2186572 41.5049505 18.8272432 39.7860149"></polygon>
                    <polygon fill="#C45599" points="18.8271968 41.558323 17.1920483 41.5050743 18.8143719 39.7892327"></polygon>
                    <polygon fill="#A63177" points="18.8072401 41.558323 17.2119895 41.5050743 16.9858756 44.3146813"></polygon>
                    <polygon fill="#531033" points="15.5569307 46.4769493 17.2119895 41.5049814 16.9858756 44.3145885"></polygon>
                    <polygon fill="#570E33" points="15.5569307 46.4769493 14.6928527 44.8418007 16.6410736 43.2198639"></polygon>
                    <polygon fill="#A63779" points="12.805229 41.2391708 14.6929301 44.8418162 16.641151 43.2198793"></polygon>
                    <polygon fill="#A6377B" points="12.805229 41.2391708 14.6929301 44.8418162 10.7845606 45.1342667"></polygon>
                    <polygon fill="#9E3883" points="12.805229 41.2391708 10.5187191 41.066414 10.7845606 45.1342667"></polygon>
                    <polygon fill="#77257A" points="12.805229 41.2391708 10.5187191 41.066414 12.6573639 40.0693533 12.805229 41.2391708"></polygon>
                    <polygon fill="#9A3A78" points="12.805229 41.2391708 17.2186572 41.5049969 16.641151 43.2198793"></polygon>
                    <polygon fill="#5E0C32" points="15.5569307 46.4769493 14.6928527 44.8418007 13.7622525 47.9126547 15.5569307 46.4769493"></polygon>
                    <polygon fill="#D3598B" points="11.1301052 48.1785272 14.6928527 44.8418472 13.7622525 47.9127011"></polygon>
                    <polygon fill="#FFABD1" points="11.1301052 48.1785272 14.6928527 44.8418472 10.7844833 45.1342976 11.1301052 48.1785272"></polygon>
                    <polygon fill="#FFAED4" points="11.1301052 48.1785272 4.04464728 46.6232519 10.7844833 45.1342976 11.1301052 48.1785272"></polygon>
                    <polygon fill="#FFACD4" points="8.37824876 44.8418936 4.04463181 46.6232983 10.7844678 45.1343441"></polygon>
                    <polygon fill="#F18BBE" points="8.37824876 44.8418936 4.04463181 46.6232983 5.30745668 43.7385365"></polygon>
                    <polygon fill="#FDA2D2" points="4.32936262 42.4622525 4.04477104 46.6232519 5.30759592 43.7384901"></polygon>
                    <polygon fill="#80295D" points="4.32936262 42.4622525 4.04477104 46.6232519 0.711308787 43.4493967"></polygon>
                    <polygon fill="#832F6D" points="4.32936262 42.4622525 3.38915532 41.2357828 0.711308787 43.4493967 4.32936262 42.4622525"></polygon>
                    <polygon fill="#B25192" points="1.28960396 39.6008663 4.42543317 40.4051825 0.711277847 43.4494276"></polygon>
                    <polygon fill="#5F1A56" points="1.28960396 39.6008663 0.422246287 37.6866027 0.711277847 43.4494276"></polygon>
                    <polygon fill="#4C2046" points="1.28960396 39.6008663 4.42543317 40.4051825 0.422246287 37.6866027"></polygon>
                    <polygon fill="#522354" points="3.99149134 36.7693379 4.42535582 40.4051825 0.422168936 37.6865873"></polygon>
                    <polygon fill="#7B3A96" points="3.99149134 36.7693379 1.28952661 35.168487 0.422168936 37.6865873"></polygon>
                    <polygon fill="#793289" points="0.541769802 34.7254022 1.28961943 35.168487 0.422261757 37.6866027 0.541769802 34.7254022"></polygon>
                    <polygon fill="#672674" points="0.541769802 34.7254022 0.0093904703 35.3422803 0.422261757 37.6866027 0.541769802 34.7254022"></polygon>
                    <polygon fill="#B57AC8" points="3.99149134 36.7693379 0.54167698 34.7253868 5.71480507 35.0245359 3.99149134 36.7693379"></polygon>
                    <polygon fill="#6D347A" points="3.99149134 36.7693379 4.42535582 40.4051825 6.62362314 38.594245"></polygon>
                    <polygon fill="#D399DC" points="3.99149134 36.7693379 6.37430384 38.0056002 6.62362314 38.594245"></polygon>
                    <polygon fill="#B36DB3" points="3.99149134 36.7693379 6.37430384 38.0056002 5.71480507 35.0245359 3.99149134 36.7693379"></polygon>
                    <polygon fill="#A23A81" points="8.37824876 44.8418936 8.51129332 42.229672 5.30745668 43.7385365 8.37824876 44.8418936"></polygon>
                    <polygon fill="#8C3380" points="7.67048267 41.0663676 8.51129332 42.2295483 5.30745668 43.7384127 7.67048267 41.0663676"></polygon>
                    <polygon fill="#732A69" points="7.67048267 41.0663676 3.38901609 41.2357054 5.30745668 43.7384127"></polygon>
                    <polygon fill="#733276" points="6.77970297 41.1164913 3.3890625 41.2357364 6.62363861 38.5941832 6.77970297 41.1164913"></polygon>
                    <polygon fill="#752D6F" points="7.67048267 41.0663676 8.51129332 42.2295483 9.89788057 41.4259901"></polygon>
                    <polygon fill="#793289" points="6.77970297 41.1164913 6.62363861 38.5941832 7.67052908 41.0663985 6.77970297 41.1164913"></polygon>
                    <polygon fill="#A7397D" points="8.37824876 44.8418936 8.51129332 42.229672 10.7844678 45.1343441"></polygon>
                    <polygon fill="#812F70" points="10.5187191 41.0663676 8.51138614 42.2295483 10.7845606 45.1342203"></polygon>
                    <polygon fill="#FFA6C7" points="11.1301052 48.1785272 4.04464728 46.6232519 8.5777073 48.7236077"></polygon>
                    <polygon fill="#771E4E" points="18.8072401 41.558323 18.8138769 43.2199567 15.5569307 46.4770421 18.8072401 41.558323"></polygon>
                    <polygon fill="#521A3D" points="18.8138923 43.2198329 19.7178837 39.3015934 18.8072556 39.8034189"></polygon>
                    <polygon fill="#76336B" points="18.9733911 34.65888 16.4376083 37.3641863 18.8139078 39.8035272 18.9733911 34.65888"></polygon>
                    <polygon fill="#3D2437" points="18.9733911 34.65888 19.7178991 39.3017017 19.6380879 30.8569152"></polygon>
                    <polygon fill="#5C4496" points="13.6262376 28.0068069 12.6723082 28.8628403 13.3635675 37.3574412"></polygon>
                    <polyline fill="#50266E" points="12.6723391 28.8629332 13.3957611 37.3421411 12.6573793 40.0694152"></polyline>
                    <polygon fill="#5E529E" points="13.6262376 28.0068069 12.6723082 28.8628403 11.6885829 27.0880724"></polygon>
                    <polygon fill="#8675C4" points="17.1022587 26.0634282 19.2392791 28.1449567 18.2090192 26.0511757 17.1022587 26.0634282"></polygon>
                    <polygon fill="#9789C4" points="11.6885829 27.1081374 11.3894957 25.8518255 15.5704053 27.0880879"></polygon>
                    <polygon fill="#C6C7F3" points="17.1022587 26.0713181 18.2090192 26.0512686 16.1152537 23.5986541"></polygon>
                    <polygon fill="#9FA3DC" points="11.5490408 23.7380879 13.5130569 22.9903001 16.1153001 23.5985458 11.5490408 23.7380879"></polygon>
                    <polygon fill="#5C93DC" points="8.01949257 20.1389233 8.69735458 20.9664604 11.2098546 20.5675897"></polygon>
                    <polygon fill="#ABB8EB" points="16.1152537 23.5985458 13.5130105 23.0002939 16.6071473 19.7300588"></polygon>
                    <polygon fill="#76A0DD" points="16.3174505 21.8064666 18.5081683 19.5173731 16.6071318 19.7300897"></polygon>
                    <polygon fill="#91BCF8" points="16.3174505 21.8064666 18.5081683 19.5173731 17.411448 23.0003249 16.3174505 21.8064666"></polygon>
                    <polygon fill="#6BADFA" points="19.6381498 19.970297 18.5082457 19.5174041 17.4115254 23.0003558 19.6381498 19.970297"></polygon>
                    <polygon fill="#6CB8E8" points="19.6381498 19.970297 18.5082457 19.5174041 19.8043317 18.6733137"></polygon>
                    <polygon fill="#91B0F3" points="16.3174505 21.8064666 16.1604115 23.1985922 17.411448 23.0003249"></polygon>
                    <polygon fill="#86BFF9" points="12.46612 19.7300433 15.0716275 17.848979 13.5030786 15.92138 12.4661046 19.7300433"></polygon>
                    <polygon fill="#6CB8E8" points="13.1907488 13.7480043 13.5031869 15.9214418 15.3975866 13.4289295"></polygon>
                    <polygon fill="#428CC8" points="18.5081993 19.5173267 18.8072865 9.93927908 19.9704053 13.2095142"></polygon>
                    <polygon fill="#446EAD" points="18.5081993 19.5173267 19.8042853 18.6732364 19.9704053 13.2095142 18.5081993 19.5173267"></polygon>
                    <polygon fill="#3A8BC8" points="18.9469369 6.19050124 18.8073175 9.93934097 19.9704363 13.2095761 18.9469369 6.19050124"></polygon>
                    <polygon fill="#C2DAFA" points="13.1907488 13.7480043 13.7692141 10.5375309 15.3975866 13.4289295"></polygon>
                    <polygon fill="#43A6DB" points="12.6056621 12.2524134 13.1906405 13.7480043 13.7690903 10.5375309"></polygon>
                    <polygon fill="#64C1E9" points="16.3944926 6.52950186 18.8073329 9.95926671 16.0157178 10.5375309 16.3944926 6.52950186"></polygon>
                    <polygon fill="#7ECBED" points="16.3944926 6.52950186 18.8073329 9.95926671 17.7105507 6.17059097 16.3944926 6.52950186"></polygon>
                    <polygon fill="#50B9DE" points="18.9469369 6.18496287 18.8073175 9.93374072 17.7105353 6.18496287 18.9469369 6.18496287"></polygon>
                    <polygon fill="#50C3E6" points="18.9469369 6.18496287 17.5709932 4.27069926 17.7105353 6.18496287 18.9469369 6.18496287"></polygon>
                    <polygon fill="#8AD1F2" points="16.3944926 6.52950186 17.5710087 4.27625309 17.7105507 6.17059097 16.3944926 6.52950186"></polygon>
                    <polygon fill="#47223B" points="18.9733911 34.65888 19.7178991 39.3017017 18.8139078 39.8035272"></polygon>
                    <polygon fill="#803673" points="16.1684715 40.4415223 16.4375928 37.3640934 18.8138923 39.8034344"></polygon>
                </g>
            </g>
            <g id="Group" transform="translate(0.000000, 0.077351)" fill="#000000" fill-rule="nonzero">
                <polygon id="Path" points="9.86076132e-32 0.000897277228 6.68019802 0.000897277228 15.6102413 25.7167079 15.7457921 25.7167079 24.607565 0.000897277228 31.3938119 0.000897277228 31.3938119 48.5668007 24.430492 48.5668007 24.4305074 19.0319926 24.3124691 19.0319926 17.4137531 39.9060644 13.9302908 39.9060644 7.09976795 19.0319926 6.96330446 19.0319926 6.96330446 48.5668007 -8.79384574e-16 48.5668007"></polygon>
                <rect id="Rectangle" x="38.170328" y="0.000897277228" width="6.96324257" height="48.5659035"></rect>
                <path d="M59.5891089,0.000897277228 L65.3878868,0.000897277228 L76.2347463,48.5668007 L69.2760829,48.5668007 L67.2300743,38.1219059 L57.7478187,38.1219059 L55.7008354,48.5668007 L48.7430693,48.5668007 L59.5891089,0.000897277228 L59.5891089,0.000897277228 Z M62.5230353,13.9837252 L62.3865873,13.9837252 L58.9758973,31.5717512 L65.9336634,31.5717512 L62.5230507,13.9837252 L62.5230353,13.9837252 Z" id="Shape"></path>
            </g>
        </g>
    </g>
</svg>