<?xml version="1.0" encoding="UTF-8"?>
<svg width="15px" height="36px" viewBox="0 0 15 36" version="1.1" xmlns="http://www.w3.org/2000/svg" xmlns:xlink="http://www.w3.org/1999/xlink">
    <!-- Generator: Sketch 63.1 (92452) - https://sketch.com -->
    <title>Group</title>
    <desc>Created with Sketch.</desc>
    <defs>
        <linearGradient x1="50.000155%" y1="99.9999365%" x2="50.000155%" y2="-4.17370186e-14%" id="linearGradient-1">
            <stop stop-color="#8E1A51" offset="0%"></stop>
            <stop stop-color="#4578AA" offset="52%"></stop>
            <stop stop-color="#00D1FF" offset="100%"></stop>
        </linearGradient>
    </defs>
    <g id="Page-1" stroke="none" stroke-width="1" fill="none" fill-rule="evenodd">
        <g id="Group">
            <polyline id="Path" fill="#000000" points="12.9093125 3.14173697 13.9202099 4.54812336 14.6721686 9.7049947 14.5501212 13.7191579 14.4280284 14.6720436 12.7921411 16.8982092 11.8730122 17.043875 11.8398237 17.3377412 13.3781004 19.1396621 14.135026 20.6779501 14.4280284 22.6703412 14.4866652 28.8746742 13.8225083 31.7533807 11.4296499 34.1463414 10.1111108 35.2011454 8.17728834 35.3964463 6.30205723 35.7969135 2.97164579 34.253795 0.522571479 31.921983 0.310221762 27.6880708 0.0068877551 25.9657115 0.398023591 25.5124949 4.19868913 25.732278 4.68321883 27.9224477 4.87690569 28.3713111 5.63890054 30.1712429 7.27199182 30.4354554 7.72804986 30.1712429 9.2992991 29.4387086 9.31028996 21.2053748 8.60682966 19.933993 8.59782784 19.9325722 8.58395004 19.9009408 6.07548874 19.5499268 5.89192893 14.7959323 7.24471358 14.9776963 9.15883891 14.4955875 9.91821959 11.6973858 9.68985527 10.1005746 9.26074586 9.00177309 10.1157936 7.74185947 9.02684633 5.80803698 7.27190089 5.38318979 5.04214361 6.32083375 4.28029652 10.0126705 2.84463149 9.61103253 0.628797484 9.86615225 0.0903818953 8.84066099 0.354116993 4.18190165 3.13767933 0.988176904 6.61807562 0.53751768 7.56206178 1.49405644e-14 11.590762 1.40743206 12.9093125 3.14173697"></polyline>
            <polyline id="Path" fill="url(#linearGradient-1)" fill-rule="nonzero" points="12.9093125 3.14173697 13.9202099 4.54812336 14.6721686 9.7049947 14.5501212 13.7191579 14.4280284 14.6720436 12.7921411 16.8982092 11.8730122 17.043875 11.8398237 17.3377412 13.3781004 19.1396621 14.135026 20.6779501 14.4280284 22.6703412 14.4866652 28.8746742 13.8225083 31.7533807 11.4296499 34.1463414 10.1111108 35.2011454 8.17728834 35.3964463 6.30205723 35.7969135 2.97164579 34.253795 0.522571479 31.921983 0.310221762 27.6880708 0.0068877551 25.9657115 0.398023591 25.5124949 4.19868913 25.732278 4.68321883 27.9224477 4.87690569 28.3713111 5.63890054 30.1712429 7.27199182 30.4354554 7.72804986 30.1712429 9.2992991 29.4387086 9.31028996 21.2053748 8.60682966 19.933993 8.59782784 19.9325722 8.58395004 19.9009408 6.07548874 19.5499268 5.89192893 14.7959323 7.24471358 14.9776963 9.15883891 14.4955875 9.91821959 11.6973858 9.68985527 10.1005746 9.26074586 9.00177309 10.1157936 7.74185947 9.02684633 5.80803698 7.27190089 5.38318979 5.04214361 6.32083375 4.28029652 10.0126705 2.84463149 9.61103253 0.628797484 9.86615225 0.0903818953 8.84066099 0.354116993 4.18190165 3.13767933 0.988176904 6.61807562 0.53751768 7.56206178 1.49405644e-14 11.590762 1.40743206 12.9093125 3.14173697"></polyline>
            <g fill-rule="nonzero" id="Path">
                <polygon fill="#DBDEFA" points="0.0903591635 8.84066099 4.28031926 10.0126705 2.84460876 8.51833451"></polygon>
                <polygon fill="#51ABDB" points="0.0903591635 8.84066099 2.84460876 9.61103253 0.628774752 9.86615225"></polygon>
                <polygon fill="#80CBF7" points="3.13767933 3.91816655 4.28034199 10.0126819 2.84463149 8.51833451"></polygon>
                <polygon fill="#9FE0FF" points="3.13767933 3.91816655 0.0903818953 8.84066099 2.84463149 8.51833451 3.13767933 3.91816655"></polygon>
                <polygon fill="#90D8FC" points="3.13767933 3.91816655 0.0903818953 8.84066099 1.37960825 4.79718504"></polygon>
                <polygon fill="#96E1FF" points="3.13767933 3.91816655 3.56253789 2.2773578 1.37960825 4.79718504 3.13767933 3.91816655"></polygon>
                <polygon fill="#93DFFF" points="3.13767933 3.91816655 3.56253789 2.2773578 7.82566049 1.63271621"></polygon>
                <polygon fill="#93DFFF" points="7.56198222 -4.93038066e-32 3.56245832 2.2773578 7.82558093 1.63271621"></polygon>
                <polygon fill="#92DFFF" points="7.56198222 0 12.0448538 4.79718504 7.82558093 1.63271621 7.56198222 3.23039231e-16"></polygon>
                <polygon fill="#96D7F6" points="7.56198222 0 12.0448538 4.79718504 12.9092329 3.14173697 7.56198222 6.46078463e-16"></polygon>
                <polygon fill="#3BC4E9" points="7.56198222 0 11.5906825 1.40743206 12.9092329 3.14173697"></polygon>
                <polygon fill="#B1E7FF" points="7.79634775 4.5334954 12.0449333 4.79718504 7.82566049 1.63271621 7.79634775 4.5334954"></polygon>
                <polygon fill="#3BC3E8" points="6.61804152 0.53751768 3.56250379 2.2773578 3.13764523 0.988176904"></polygon>
                <polygon fill="#3AA4D5" points="3.13767933 0.988176904 3.56253789 2.2773578 1.37960825 4.79718504"></polygon>
                <polygon fill="#47BFE3" points="3.13767933 0.988176904 0.354116993 4.18190165 1.37960825 4.79718504 3.13767933 0.988176904"></polygon>
                <polygon fill="#3A92C9" points="0.0903591635 8.84066099 0.354094261 4.18190165 1.37958552 4.79718504 0.0903591635 8.84066099"></polygon>
                <polygon fill="#87D3FB" points="3.13767933 3.91816655 4.28034199 10.0126819 5.04218908 6.32083375 3.13767933 3.91816655"></polygon>
                <polygon fill="#BEE9FF" points="3.13767933 3.91816655 6.30205723 4.79718504 5.04218908 6.32083375 3.13767933 3.91816655"></polygon>
                <polygon fill="#AEECFF" points="3.13767933 3.91816655 6.30205723 4.79718504 7.82566049 1.63271621 3.13767933 3.91816655"></polygon>
                <polygon fill="#96DCFD" points="7.8110098 4.5334954 6.30204587 4.79718504 7.82564912 1.63271621 7.8110098 4.5334954"></polygon>
                <polygon fill="#7AD5FE" points="7.27192362 5.38318979 6.30198904 4.79718504 5.04212088 6.32083375"></polygon>
                <polygon fill="#D9F0FF" points="7.27192362 5.38318979 6.30198904 4.79718504 7.81095297 4.5334954 7.27192362 5.38318979"></polygon>
                <polygon fill="#CFEAFE" points="7.27192362 5.38318979 9.02691453 5.80803698 7.81095297 4.5334954"></polygon>
                <polygon fill="#B5E5FF" points="12.0449333 4.79718504 9.02698272 5.80803698 7.81102117 4.5334954"></polygon>
                <polygon fill="#88D7FF" points="12.0449333 4.79718504 9.02698272 5.80803698 11.7666498 7.74185947 12.0449333 4.79718504"></polygon>
                <polygon fill="#63C1EB" points="10.8826531 7.93232976 9.02692589 5.80803698 11.766593 7.74185947 10.8826531 7.93232976"></polygon>
                <polygon fill="#3D83BD" points="10.8826531 7.93232976 9.02692589 5.80803698 11.3124331 9.86615225"></polygon>
                <polygon fill="#64BBE6" points="10.8826531 7.93232976 13.8175755 7.30237295 11.3124331 9.86615225 10.8826531 7.93232976"></polygon>
                <polygon fill="#57A5D6" points="13.5978607 14.3392605 13.8175983 7.30232749 11.3124558 9.86610679 13.5978607 14.3392605"></polygon>
                <polygon fill="#5DA1D6" points="13.5978607 14.3392605 9.9206519 11.6973404 11.3124558 9.86610679"></polygon>
                <polygon fill="#8BB6EB" points="13.5978607 14.3392605 9.9206519 11.6973404 12.2011808 14.495542"></polygon>
                <polygon fill="#97C3FC" points="9.15878208 14.4892908 11.0730324 13.1072843 12.2011581 14.4892908 9.15877071 14.4892908"></polygon>
                <polygon fill="#87ABEE" points="9.15878208 14.4892908 9.92791473 16.9329208 12.2073525 14.4949283 9.15877071 14.4892908"></polygon>
                <polygon fill="#7FA2E1" points="9.15878208 14.4809936 9.92791473 16.8982433 8.23581153 15.110905 9.15877071 14.4809936"></polygon>
                <polygon fill="#7AA6E7" points="9.15878208 14.4809936 7.24465675 14.9777303 8.23581153 15.110905 9.15877071 14.4809936"></polygon>
                <polygon fill="#748DCE" points="8.4850096 17.4402278 6.38463073 15.3973492 8.23585699 15.1108368 8.4850096 17.4402278"></polygon>
                <polygon fill="#8A94D4" points="8.4850096 17.4402278 6.38463073 15.3973492 6.62440645 18.846671 8.4850096 17.4402278"></polygon>
                <polygon fill="#839ADA" points="5.8918721 14.7959436 6.38989316 15.4039301 6.62436098 18.8467165"></polygon>
                <polygon fill="#797FCC" points="5.8918721 14.7959436 6.07543191 19.5499381 6.62436098 18.8467165"></polygon>
                <polygon fill="#736FBD" points="8.58753031 19.9015205 6.075466 19.5499836 6.62439508 18.846762 8.58753031 19.9015205"></polygon>
                <polygon fill="#D0B8EA" points="8.58753031 19.9015205 8.36779274 18.9932461 6.62439508 18.846762 8.58753031 19.9015205"></polygon>
                <polygon fill="#AFAAE0" points="8.4850096 17.4402278 8.3678041 18.9931552 6.62440645 18.846671"></polygon>
                <polygon fill="#A1A0DA" points="8.4850096 17.4287482 8.3678041 18.9931325 11.8398123 17.3376844 8.4850096 17.4287482"></polygon>
                <polygon fill="#AEB1F1" points="12.5649247 19.1486411 8.36777 18.9931665 11.8397782 17.3377185 12.5649247 19.1486411"></polygon>
                <polygon fill="#9292DF" points="12.5649247 19.1486411 8.36777 18.9931665 11.4296045 19.9014409"></polygon>
                <polygon fill="#9286D3" points="12.5649247 19.1486411 14.1349806 20.6779274 11.4052132 19.9161712 12.5649247 19.1486411"></polygon>
                <polygon fill="#B1A5E1" points="8.58753031 19.9161826 14.1350033 20.6779387 11.4296272 19.9014523"></polygon>
                <polygon fill="#76599D" points="8.58753031 19.9015205 14.1350033 20.6780069 14.4280057 22.6703981"></polygon>
                <polygon fill="#9D73B3" points="10.0111134 20.5764296 13.939657 25.4635987 14.4280057 22.6703299 10.0111134 20.5764296"></polygon>
                <polygon fill="#704389" points="10.0111134 20.5764296 13.939657 25.4635987 9.79852495 27.4756984 10.0111134 20.5764296"></polygon>
                <polygon fill="#AA5EA0" points="9.299265 29.4386745 13.9396456 25.4635873 9.81811982 27.446272 9.299265 29.4386745"></polygon>
                <polygon fill="#723271" points="9.299265 29.4386745 13.9396456 25.4635873 9.40790059 30.2981322 9.299265 29.4386745"></polygon>
                <polygon fill="#E492CC" points="11.878877 29.7121388 12.0765988 27.4511707 9.40787785 30.2981436 11.878877 29.7121388"></polygon>
                <polygon fill="#71235F" points="11.878877 29.7121388 12.6503965 30.4934444 9.40787785 30.2981436 11.878877 29.7121388"></polygon>
                <polygon fill="#8DA9EF" points="8.4850096 17.4402278 9.92796019 16.8981751 8.23585699 15.1108368"></polygon>
                <polygon fill="#842F6A" points="11.8612599 29.7083881 12.650442 30.493433 13.8322603 29.2305415"></polygon>
                <polygon fill="#C45599" points="13.8322262 30.5326455 12.6308926 30.4935239 13.8228038 29.2329056"></polygon>
                <polygon fill="#A63177" points="13.8175642 30.5326455 12.6455433 30.4935239 12.4794188 32.557725"></polygon>
                <polygon fill="#531033" points="11.4295817 34.1463301 12.6455433 30.4934557 12.4794188 32.5576568"></polygon>
                <polygon fill="#570E33" points="11.4295817 34.1463301 10.7947489 32.9449965 12.2260949 31.7533694"></polygon>
                <polygon fill="#A63779" points="9.40792332 30.2981663 10.7948058 32.9450078 12.2261517 31.7533807"></polygon>
                <polygon fill="#A6377B" points="9.40792332 30.2981663 10.7948058 32.9450078 7.92335068 33.1598694"></polygon>
                <polygon fill="#9E3883" points="9.40792332 30.2981663 7.72803849 30.1712429 7.92335068 33.1598694"></polygon>
                <polygon fill="#77257A" points="9.40792332 30.2981663 7.72803849 30.1712429 9.29928773 29.4387086 9.40792332 30.2981663"></polygon>
                <polygon fill="#9A3A78" points="9.40792332 30.2981663 12.650442 30.4934671 12.2261517 31.7533807"></polygon>
                <polygon fill="#5E0C32" points="11.4295817 34.1463301 10.7947489 32.9449965 10.1110426 35.2011341 11.4295817 34.1463301"></polygon>
                <polygon fill="#D3598B" points="8.17722015 35.396469 10.7947489 32.9450306 10.1110426 35.2011682"></polygon>
                <polygon fill="#FFABD1" points="8.17722015 35.396469 10.7947489 32.9450306 7.92329385 33.1598921 8.17722015 35.396469"></polygon>
                <polygon fill="#FFAED4" points="8.17722015 35.396469 2.97157759 34.2538177 7.92329385 33.1598921 8.17722015 35.396469"></polygon>
                <polygon fill="#FFACD4" points="6.15544807 32.9450647 2.97156623 34.2538518 7.92328248 33.1599262"></polygon>
                <polygon fill="#F18BBE" points="6.15544807 32.9450647 2.97156623 34.2538518 3.89935593 32.134435"></polygon>
                <polygon fill="#FDA2D2" points="3.18075621 31.1967569 2.97166852 34.2538177 3.89945822 32.1344009"></polygon>
                <polygon fill="#80295D" points="3.18075621 31.1967569 2.97166852 34.2538177 0.522594211 31.9220057"></polygon>
                <polygon fill="#832F6D" points="3.18075621 31.1967569 2.48999166 30.2956772 0.522594211 31.9220057 3.18075621 31.1967569"></polygon>
                <polygon fill="#B25192" points="0.947464134 29.094514 3.25133865 29.6854402 0.522571479 31.9220284"></polygon>
                <polygon fill="#5F1A56" points="0.947464134 29.094514 0.310221762 27.6881163 0.522571479 31.9220284"></polygon>
                <polygon fill="#4C2046" points="0.947464134 29.094514 3.25133865 29.6854402 0.310221762 27.6881163"></polygon>
                <polygon fill="#522354" points="2.93252425 27.0142074 3.25128182 29.6854402 0.310164932 27.6881049"></polygon>
                <polygon fill="#7B3A96" points="2.93252425 27.0142074 0.947407305 25.8380721 0.310164932 27.6881049"></polygon>
                <polygon fill="#793289" points="0.398034957 25.5125404 0.9474755 25.8380721 0.310233128 27.6881163 0.398034957 25.5125404"></polygon>
                <polygon fill="#672674" points="0.398034957 25.5125404 0.00689912103 25.965757 0.310233128 27.6881163 0.398034957 25.5125404"></polygon>
                <polygon fill="#B57AC8" points="2.93252425 27.0142074 0.397966761 25.512529 4.1986323 25.7323121 2.93252425 27.0142074"></polygon>
                <polygon fill="#6D347A" points="2.93252425 27.0142074 3.25128182 29.6854402 4.86633537 28.3549555"></polygon>
                <polygon fill="#D399DC" points="2.93252425 27.0142074 4.683162 27.9224818 4.86633537 28.3549555"></polygon>
                <polygon fill="#B36DB3" points="2.93252425 27.0142074 4.683162 27.9224818 4.1986323 25.7323121 2.93252425 27.0142074"></polygon>
                <polygon fill="#A23A81" points="6.15544807 32.9450647 6.25319509 31.0258815 3.89935593 32.134435 6.15544807 32.9450647"></polygon>
                <polygon fill="#8C3380" points="5.63545666 30.1712088 6.25319509 31.0257906 3.89935593 32.1343441 5.63545666 30.1712088"></polygon>
                <polygon fill="#732A69" points="5.63545666 30.1712088 2.48988937 30.2956203 3.89935593 32.1343441"></polygon>
                <polygon fill="#733276" points="4.98100626 30.2080345 2.48992347 30.2956431 4.86634674 28.3549101 4.98100626 30.2080345"></polygon>
                <polygon fill="#752D6F" points="5.63545666 30.1712088 6.25319509 31.0257906 7.27191226 30.4354213"></polygon>
                <polygon fill="#793289" points="4.98100626 30.2080345 4.86634674 28.3549101 5.63549076 30.1712316 4.98100626 30.2080345"></polygon>
                <polygon fill="#A7397D" points="6.15544807 32.9450647 6.25319509 31.0258815 7.92328248 33.1599262"></polygon>
                <polygon fill="#812F70" points="7.72803849 30.1712088 6.25326329 31.0257906 7.92335068 33.1598353"></polygon>
                <polygon fill="#FFA6C7" points="8.17722015 35.396469 2.97157759 34.2538177 6.30198904 35.7969362"></polygon>
                <polygon fill="#771E4E" points="13.8175642 30.5326455 13.8224401 31.7534376 11.4295817 34.1463983 13.8175642 30.5326455"></polygon>
                <polygon fill="#521A3D" points="13.8224515 31.7533466 14.4866084 28.8746401 13.8175755 29.2433282"></polygon>
                <polygon fill="#76336B" points="13.9396343 25.4636669 12.0766102 27.4512389 13.8224629 29.2434078 13.9396343 25.4636669"></polygon>
                <polygon fill="#3D2437" points="13.9396343 25.4636669 14.4866198 28.8747196 14.4279829 22.6703867"></polygon>
                <polygon fill="#5C4496" points="10.0111134 20.5764296 9.31026723 21.2053521 9.81813119 27.4462833"></polygon>
                <polyline fill="#50266E" points="9.31028996 21.2054203 9.84178369 27.4350424 9.2992991 29.438754"></polyline>
                <polygon fill="#5E529E" points="10.0111134 20.5764296 9.31026723 21.2053521 8.58753031 19.9014409"></polygon>
                <polygon fill="#8675C4" points="12.5649247 19.1486411 14.1349806 20.6779274 13.3780549 19.1396393 12.5649247 19.1486411"></polygon>
                <polygon fill="#9789C4" points="8.58753031 19.9161826 8.36779274 18.9931779 11.4394815 19.9014523"></polygon>
                <polygon fill="#C6C7F3" points="12.5649247 19.1544378 13.3780549 19.1397075 11.8397782 17.3377867"></polygon>
                <polygon fill="#9FA3DC" points="8.4850096 17.4402278 9.92796019 16.8908327 11.8398123 17.3377071 8.4850096 17.4402278"></polygon>
                <polygon fill="#5C93DC" points="5.8918721 14.7959436 6.38989316 15.4039301 8.23581153 15.1108822"></polygon>
                <polygon fill="#ABB8EB" points="11.8397782 17.3377071 9.9279261 16.8981751 12.2011694 14.4955534"></polygon>
                <polygon fill="#76A0DD" points="11.988331 16.0210775 13.5978379 14.3392946 12.2011581 14.4955761"></polygon>
                <polygon fill="#91BCF8" points="11.988331 16.0210775 13.5978379 14.3392946 12.7920843 16.8981979 11.988331 16.0210775"></polygon>
                <polygon fill="#6BADFA" points="14.4280284 14.672055 13.5978948 14.3393173 12.7921411 16.8982206 14.4280284 14.672055"></polygon>
                <polygon fill="#6CB8E8" points="14.4280284 14.672055 13.5978948 14.3393173 14.5501212 13.7191693"></polygon>
                <polygon fill="#91B0F3" points="11.988331 16.0210775 11.8729554 17.0438637 12.7920843 16.8981979"></polygon>
                <polygon fill="#86BFF9" points="9.15878208 14.495542 11.0730324 13.1135356 9.92062917 11.6973404 9.15877071 14.495542"></polygon>
                <polygon fill="#6CB8E8" points="9.69116236 10.1005746 9.92070873 11.6973858 11.3125126 9.86615225"></polygon>
                <polygon fill="#428CC8" points="13.5978607 14.3392605 13.8175983 7.30232749 14.6721345 9.70494923"></polygon>
                <polygon fill="#446EAD" points="13.5978607 14.3392605 14.5500871 13.7191124 14.6721345 9.70494923 13.5978607 14.3392605"></polygon>
                <polygon fill="#3A8BC8" points="13.9201985 4.54812336 13.817621 7.30237295 14.6721573 9.7049947 13.9201985 4.54812336"></polygon>
                <polygon fill="#C2DAFA" points="9.69116236 10.1005746 10.1161573 7.74185947 11.3125126 9.86615225"></polygon>
                <polygon fill="#43A6DB" points="9.26130279 9.00177309 9.69108279 10.1005746 10.1160664 7.74185947"></polygon>
                <polygon fill="#64C1E9" points="12.0449333 4.79718504 13.8176323 7.31701228 11.7666498 7.74185947 12.0449333 4.79718504"></polygon>
                <polygon fill="#7ECBED" points="12.0449333 4.79718504 13.8176323 7.31701228 13.0118332 4.5334954 12.0449333 4.79718504"></polygon>
                <polygon fill="#50B9DE" points="13.9201985 4.54405435 13.817621 7.29825849 13.0118218 4.54405435 13.9201985 4.54405435"></polygon>
                <polygon fill="#50C3E6" points="13.9201985 4.54405435 12.9093011 3.1376566 13.0118218 4.54405435 13.9201985 4.54405435"></polygon>
                <polygon fill="#8AD1F2" points="12.0449333 4.79718504 12.9093125 3.14173697 13.0118332 4.5334954 12.0449333 4.79718504"></polygon>
                <polygon fill="#47223B" points="13.9396343 25.4636669 14.4866198 28.8747196 13.8224629 29.2434078"></polygon>
                <polygon fill="#803673" points="11.878877 29.7121388 12.0765988 27.4511707 13.8224515 29.2433396"></polygon>
            </g>
            <g fill-rule="nonzero" id="Path">
                <polygon fill="#DBDEFA" points="0.0903591635 8.84066099 4.28031926 10.0126705 2.84460876 8.51833451"></polygon>
                <polygon fill="#51ABDB" points="0.0903591635 8.84066099 2.84460876 9.61103253 0.628774752 9.86615225"></polygon>
                <polygon fill="#80CBF7" points="3.13767933 3.91816655 4.28034199 10.0126819 2.84463149 8.51833451"></polygon>
                <polygon fill="#9FE0FF" points="3.13767933 3.91816655 0.0903818953 8.84066099 2.84463149 8.51833451 3.13767933 3.91816655"></polygon>
                <polygon fill="#90D8FC" points="3.13767933 3.91816655 0.0903818953 8.84066099 1.37960825 4.79718504"></polygon>
                <polygon fill="#96E1FF" points="3.13767933 3.91816655 3.56253789 2.2773578 1.37960825 4.79718504 3.13767933 3.91816655"></polygon>
                <polygon fill="#93DFFF" points="3.13767933 3.91816655 3.56253789 2.2773578 7.82566049 1.63271621"></polygon>
                <polygon fill="#93DFFF" points="7.56198222 -4.93038066e-32 3.56245832 2.2773578 7.82558093 1.63271621"></polygon>
                <polygon fill="#92DFFF" points="7.56198222 0 12.0448538 4.79718504 7.82558093 1.63271621 7.56198222 3.23039231e-16"></polygon>
                <polygon fill="#96D7F6" points="7.56198222 0 12.0448538 4.79718504 12.9092329 3.14173697 7.56198222 6.46078463e-16"></polygon>
                <polygon fill="#3BC4E9" points="7.56198222 0 11.5906825 1.40743206 12.9092329 3.14173697"></polygon>
                <polygon fill="#B1E7FF" points="7.79634775 4.5334954 12.0449333 4.79718504 7.82566049 1.63271621 7.79634775 4.5334954"></polygon>
                <polygon fill="#3BC3E8" points="6.61804152 0.53751768 3.56250379 2.2773578 3.13764523 0.988176904"></polygon>
                <polygon fill="#3AA4D5" points="3.13767933 0.988176904 3.56253789 2.2773578 1.37960825 4.79718504"></polygon>
                <polygon fill="#47BFE3" points="3.13767933 0.988176904 0.354116993 4.18190165 1.37960825 4.79718504 3.13767933 0.988176904"></polygon>
                <polygon fill="#3A92C9" points="0.0903591635 8.84066099 0.354094261 4.18190165 1.37958552 4.79718504 0.0903591635 8.84066099"></polygon>
                <polygon fill="#87D3FB" points="3.13767933 3.91816655 4.28034199 10.0126819 5.04218908 6.32083375 3.13767933 3.91816655"></polygon>
                <polygon fill="#BEE9FF" points="3.13767933 3.91816655 6.30205723 4.79718504 5.04218908 6.32083375 3.13767933 3.91816655"></polygon>
                <polygon fill="#AEECFF" points="3.13767933 3.91816655 6.30205723 4.79718504 7.82566049 1.63271621 3.13767933 3.91816655"></polygon>
                <polygon fill="#96DCFD" points="7.8110098 4.5334954 6.30204587 4.79718504 7.82564912 1.63271621 7.8110098 4.5334954"></polygon>
                <polygon fill="#7AD5FE" points="7.27192362 5.38318979 6.30198904 4.79718504 5.04212088 6.32083375"></polygon>
                <polygon fill="#D9F0FF" points="7.27192362 5.38318979 6.30198904 4.79718504 7.81095297 4.5334954 7.27192362 5.38318979"></polygon>
                <polygon fill="#CFEAFE" points="7.27192362 5.38318979 9.02691453 5.80803698 7.81095297 4.5334954"></polygon>
                <polygon fill="#B5E5FF" points="12.0449333 4.79718504 9.02698272 5.80803698 7.81102117 4.5334954"></polygon>
                <polygon fill="#88D7FF" points="12.0449333 4.79718504 9.02698272 5.80803698 11.7666498 7.74185947 12.0449333 4.79718504"></polygon>
                <polygon fill="#63C1EB" points="10.8826531 7.93232976 9.02692589 5.80803698 11.766593 7.74185947 10.8826531 7.93232976"></polygon>
                <polygon fill="#3D83BD" points="10.8826531 7.93232976 9.02692589 5.80803698 11.3124331 9.86615225"></polygon>
                <polygon fill="#64BBE6" points="10.8826531 7.93232976 13.8175755 7.30237295 11.3124331 9.86615225 10.8826531 7.93232976"></polygon>
                <polygon fill="#57A5D6" points="13.5978607 14.3392605 13.8175983 7.30232749 11.3124558 9.86610679 13.5978607 14.3392605"></polygon>
                <polygon fill="#5DA1D6" points="13.5978607 14.3392605 9.9206519 11.6973404 11.3124558 9.86610679"></polygon>
                <polygon fill="#8BB6EB" points="13.5978607 14.3392605 9.9206519 11.6973404 12.2011808 14.495542"></polygon>
                <polygon fill="#97C3FC" points="9.15878208 14.4892908 11.0730324 13.1072843 12.2011581 14.4892908 9.15877071 14.4892908"></polygon>
                <polygon fill="#87ABEE" points="9.15878208 14.4892908 9.92791473 16.9329208 12.2073525 14.4949283 9.15877071 14.4892908"></polygon>
                <polygon fill="#7FA2E1" points="9.15878208 14.4809936 9.92791473 16.8982433 8.23581153 15.110905 9.15877071 14.4809936"></polygon>
                <polygon fill="#7AA6E7" points="9.15878208 14.4809936 7.24465675 14.9777303 8.23581153 15.110905 9.15877071 14.4809936"></polygon>
                <polygon fill="#748DCE" points="8.4850096 17.4402278 6.38463073 15.3973492 8.23585699 15.1108368 8.4850096 17.4402278"></polygon>
                <polygon fill="#8A94D4" points="8.4850096 17.4402278 6.38463073 15.3973492 6.62440645 18.846671 8.4850096 17.4402278"></polygon>
                <polygon fill="#839ADA" points="5.8918721 14.7959436 6.38989316 15.4039301 6.62436098 18.8467165"></polygon>
                <polygon fill="#797FCC" points="5.8918721 14.7959436 6.07543191 19.5499381 6.62436098 18.8467165"></polygon>
                <polygon fill="#736FBD" points="8.58753031 19.9015205 6.075466 19.5499836 6.62439508 18.846762 8.58753031 19.9015205"></polygon>
                <polygon fill="#D0B8EA" points="8.58753031 19.9015205 8.36779274 18.9932461 6.62439508 18.846762 8.58753031 19.9015205"></polygon>
                <polygon fill="#AFAAE0" points="8.4850096 17.4402278 8.3678041 18.9931552 6.62440645 18.846671"></polygon>
                <polygon fill="#A1A0DA" points="8.4850096 17.4287482 8.3678041 18.9931325 11.8398123 17.3376844 8.4850096 17.4287482"></polygon>
                <polygon fill="#AEB1F1" points="12.5649247 19.1486411 8.36777 18.9931665 11.8397782 17.3377185 12.5649247 19.1486411"></polygon>
                <polygon fill="#9292DF" points="12.5649247 19.1486411 8.36777 18.9931665 11.4296045 19.9014409"></polygon>
                <polygon fill="#9286D3" points="12.5649247 19.1486411 14.1349806 20.6779274 11.4052132 19.9161712 12.5649247 19.1486411"></polygon>
                <polygon fill="#B1A5E1" points="8.58753031 19.9161826 14.1350033 20.6779387 11.4296272 19.9014523"></polygon>
                <polygon fill="#76599D" points="8.58753031 19.9015205 14.1350033 20.6780069 14.4280057 22.6703981"></polygon>
                <polygon fill="#9D73B3" points="10.0111134 20.5764296 13.939657 25.4635987 14.4280057 22.6703299 10.0111134 20.5764296"></polygon>
                <polygon fill="#704389" points="10.0111134 20.5764296 13.939657 25.4635987 9.79852495 27.4756984 10.0111134 20.5764296"></polygon>
                <polygon fill="#AA5EA0" points="9.299265 29.4386745 13.9396456 25.4635873 9.81811982 27.446272 9.299265 29.4386745"></polygon>
                <polygon fill="#723271" points="9.299265 29.4386745 13.9396456 25.4635873 9.40790059 30.2981322 9.299265 29.4386745"></polygon>
                <polygon fill="#E492CC" points="11.878877 29.7121388 12.0765988 27.4511707 9.40787785 30.2981436 11.878877 29.7121388"></polygon>
                <polygon fill="#71235F" points="11.878877 29.7121388 12.6503965 30.4934444 9.40787785 30.2981436 11.878877 29.7121388"></polygon>
                <polygon fill="#8DA9EF" points="8.4850096 17.4402278 9.92796019 16.8981751 8.23585699 15.1108368"></polygon>
                <polygon fill="#842F6A" points="11.8612599 29.7083881 12.650442 30.493433 13.8322603 29.2305415"></polygon>
                <polygon fill="#C45599" points="13.8322262 30.5326455 12.6308926 30.4935239 13.8228038 29.2329056"></polygon>
                <polygon fill="#A63177" points="13.8175642 30.5326455 12.6455433 30.4935239 12.4794188 32.557725"></polygon>
                <polygon fill="#531033" points="11.4295817 34.1463301 12.6455433 30.4934557 12.4794188 32.5576568"></polygon>
                <polygon fill="#570E33" points="11.4295817 34.1463301 10.7947489 32.9449965 12.2260949 31.7533694"></polygon>
                <polygon fill="#A63779" points="9.40792332 30.2981663 10.7948058 32.9450078 12.2261517 31.7533807"></polygon>
                <polygon fill="#A6377B" points="9.40792332 30.2981663 10.7948058 32.9450078 7.92335068 33.1598694"></polygon>
                <polygon fill="#9E3883" points="9.40792332 30.2981663 7.72803849 30.1712429 7.92335068 33.1598694"></polygon>
                <polygon fill="#77257A" points="9.40792332 30.2981663 7.72803849 30.1712429 9.29928773 29.4387086 9.40792332 30.2981663"></polygon>
                <polygon fill="#9A3A78" points="9.40792332 30.2981663 12.650442 30.4934671 12.2261517 31.7533807"></polygon>
                <polygon fill="#5E0C32" points="11.4295817 34.1463301 10.7947489 32.9449965 10.1110426 35.2011341 11.4295817 34.1463301"></polygon>
                <polygon fill="#D3598B" points="8.17722015 35.396469 10.7947489 32.9450306 10.1110426 35.2011682"></polygon>
                <polygon fill="#FFABD1" points="8.17722015 35.396469 10.7947489 32.9450306 7.92329385 33.1598921 8.17722015 35.396469"></polygon>
                <polygon fill="#FFAED4" points="8.17722015 35.396469 2.97157759 34.2538177 7.92329385 33.1598921 8.17722015 35.396469"></polygon>
                <polygon fill="#FFACD4" points="6.15544807 32.9450647 2.97156623 34.2538518 7.92328248 33.1599262"></polygon>
                <polygon fill="#F18BBE" points="6.15544807 32.9450647 2.97156623 34.2538518 3.89935593 32.134435"></polygon>
                <polygon fill="#FDA2D2" points="3.18075621 31.1967569 2.97166852 34.2538177 3.89945822 32.1344009"></polygon>
                <polygon fill="#80295D" points="3.18075621 31.1967569 2.97166852 34.2538177 0.522594211 31.9220057"></polygon>
                <polygon fill="#832F6D" points="3.18075621 31.1967569 2.48999166 30.2956772 0.522594211 31.9220057 3.18075621 31.1967569"></polygon>
                <polygon fill="#B25192" points="0.947464134 29.094514 3.25133865 29.6854402 0.522571479 31.9220284"></polygon>
                <polygon fill="#5F1A56" points="0.947464134 29.094514 0.310221762 27.6881163 0.522571479 31.9220284"></polygon>
                <polygon fill="#4C2046" points="0.947464134 29.094514 3.25133865 29.6854402 0.310221762 27.6881163"></polygon>
                <polygon fill="#522354" points="2.93252425 27.0142074 3.25128182 29.6854402 0.310164932 27.6881049"></polygon>
                <polygon fill="#7B3A96" points="2.93252425 27.0142074 0.947407305 25.8380721 0.310164932 27.6881049"></polygon>
                <polygon fill="#793289" points="0.398034957 25.5125404 0.9474755 25.8380721 0.310233128 27.6881163 0.398034957 25.5125404"></polygon>
                <polygon fill="#672674" points="0.398034957 25.5125404 0.00689912103 25.965757 0.310233128 27.6881163 0.398034957 25.5125404"></polygon>
                <polygon fill="#B57AC8" points="2.93252425 27.0142074 0.397966761 25.512529 4.1986323 25.7323121 2.93252425 27.0142074"></polygon>
                <polygon fill="#6D347A" points="2.93252425 27.0142074 3.25128182 29.6854402 4.86633537 28.3549555"></polygon>
                <polygon fill="#D399DC" points="2.93252425 27.0142074 4.683162 27.9224818 4.86633537 28.3549555"></polygon>
                <polygon fill="#B36DB3" points="2.93252425 27.0142074 4.683162 27.9224818 4.1986323 25.7323121 2.93252425 27.0142074"></polygon>
                <polygon fill="#A23A81" points="6.15544807 32.9450647 6.25319509 31.0258815 3.89935593 32.134435 6.15544807 32.9450647"></polygon>
                <polygon fill="#8C3380" points="5.63545666 30.1712088 6.25319509 31.0257906 3.89935593 32.1343441 5.63545666 30.1712088"></polygon>
                <polygon fill="#732A69" points="5.63545666 30.1712088 2.48988937 30.2956203 3.89935593 32.1343441"></polygon>
                <polygon fill="#733276" points="4.98100626 30.2080345 2.48992347 30.2956431 4.86634674 28.3549101 4.98100626 30.2080345"></polygon>
                <polygon fill="#752D6F" points="5.63545666 30.1712088 6.25319509 31.0257906 7.27191226 30.4354213"></polygon>
                <polygon fill="#793289" points="4.98100626 30.2080345 4.86634674 28.3549101 5.63549076 30.1712316 4.98100626 30.2080345"></polygon>
                <polygon fill="#A7397D" points="6.15544807 32.9450647 6.25319509 31.0258815 7.92328248 33.1599262"></polygon>
                <polygon fill="#812F70" points="7.72803849 30.1712088 6.25326329 31.0257906 7.92335068 33.1598353"></polygon>
                <polygon fill="#FFA6C7" points="8.17722015 35.396469 2.97157759 34.2538177 6.30198904 35.7969362"></polygon>
                <polygon fill="#771E4E" points="13.8175642 30.5326455 13.8224401 31.7534376 11.4295817 34.1463983 13.8175642 30.5326455"></polygon>
                <polygon fill="#521A3D" points="13.8224515 31.7533466 14.4866084 28.8746401 13.8175755 29.2433282"></polygon>
                <polygon fill="#76336B" points="13.9396343 25.4636669 12.0766102 27.4512389 13.8224629 29.2434078 13.9396343 25.4636669"></polygon>
                <polygon fill="#3D2437" points="13.9396343 25.4636669 14.4866198 28.8747196 14.4279829 22.6703867"></polygon>
                <polygon fill="#5C4496" points="10.0111134 20.5764296 9.31026723 21.2053521 9.81813119 27.4462833"></polygon>
                <polyline fill="#50266E" points="9.31028996 21.2054203 9.84178369 27.4350424 9.2992991 29.438754"></polyline>
                <polygon fill="#5E529E" points="10.0111134 20.5764296 9.31026723 21.2053521 8.58753031 19.9014409"></polygon>
                <polygon fill="#8675C4" points="12.5649247 19.1486411 14.1349806 20.6779274 13.3780549 19.1396393 12.5649247 19.1486411"></polygon>
                <polygon fill="#9789C4" points="8.58753031 19.9161826 8.36779274 18.9931779 11.4394815 19.9014523"></polygon>
                <polygon fill="#C6C7F3" points="12.5649247 19.1544378 13.3780549 19.1397075 11.8397782 17.3377867"></polygon>
                <polygon fill="#9FA3DC" points="8.4850096 17.4402278 9.92796019 16.8908327 11.8398123 17.3377071 8.4850096 17.4402278"></polygon>
                <polygon fill="#5C93DC" points="5.8918721 14.7959436 6.38989316 15.4039301 8.23581153 15.1108822"></polygon>
                <polygon fill="#ABB8EB" points="11.8397782 17.3377071 9.9279261 16.8981751 12.2011694 14.4955534"></polygon>
                <polygon fill="#76A0DD" points="11.988331 16.0210775 13.5978379 14.3392946 12.2011581 14.4955761"></polygon>
                <polygon fill="#91BCF8" points="11.988331 16.0210775 13.5978379 14.3392946 12.7920843 16.8981979 11.988331 16.0210775"></polygon>
                <polygon fill="#6BADFA" points="14.4280284 14.672055 13.5978948 14.3393173 12.7921411 16.8982206 14.4280284 14.672055"></polygon>
                <polygon fill="#6CB8E8" points="14.4280284 14.672055 13.5978948 14.3393173 14.5501212 13.7191693"></polygon>
                <polygon fill="#91B0F3" points="11.988331 16.0210775 11.8729554 17.0438637 12.7920843 16.8981979"></polygon>
                <polygon fill="#86BFF9" points="9.15878208 14.495542 11.0730324 13.1135356 9.92062917 11.6973404 9.15877071 14.495542"></polygon>
                <polygon fill="#6CB8E8" points="9.69116236 10.1005746 9.92070873 11.6973858 11.3125126 9.86615225"></polygon>
                <polygon fill="#428CC8" points="13.5978607 14.3392605 13.8175983 7.30232749 14.6721345 9.70494923"></polygon>
                <polygon fill="#446EAD" points="13.5978607 14.3392605 14.5500871 13.7191124 14.6721345 9.70494923 13.5978607 14.3392605"></polygon>
                <polygon fill="#3A8BC8" points="13.9201985 4.54812336 13.817621 7.30237295 14.6721573 9.7049947 13.9201985 4.54812336"></polygon>
                <polygon fill="#C2DAFA" points="9.69116236 10.1005746 10.1161573 7.74185947 11.3125126 9.86615225"></polygon>
                <polygon fill="#43A6DB" points="9.26130279 9.00177309 9.69108279 10.1005746 10.1160664 7.74185947"></polygon>
                <polygon fill="#64C1E9" points="12.0449333 4.79718504 13.8176323 7.31701228 11.7666498 7.74185947 12.0449333 4.79718504"></polygon>
                <polygon fill="#7ECBED" points="12.0449333 4.79718504 13.8176323 7.31701228 13.0118332 4.5334954 12.0449333 4.79718504"></polygon>
                <polygon fill="#50B9DE" points="13.9201985 4.54405435 13.817621 7.29825849 13.0118218 4.54405435 13.9201985 4.54405435"></polygon>
                <polygon fill="#50C3E6" points="13.9201985 4.54405435 12.9093011 3.1376566 13.0118218 4.54405435 13.9201985 4.54405435"></polygon>
                <polygon fill="#8AD1F2" points="12.0449333 4.79718504 12.9093125 3.14173697 13.0118332 4.5334954 12.0449333 4.79718504"></polygon>
                <polygon fill="#47223B" points="13.9396343 25.4636669 14.4866198 28.8747196 13.8224629 29.2434078"></polygon>
                <polygon fill="#803673" points="11.878877 29.7121388 12.0765988 27.4511707 13.8224515 29.2433396"></polygon>
            </g>
        </g>
    </g>
</svg>